<svg width="88" height="87" viewBox="0 0 88 87" fill="none" xmlns="http://www.w3.org/2000/svg">
<circle cx="44.0585" cy="43.5805" r="43.1991" fill="white"/>
<path fill-rule="evenodd" clip-rule="evenodd" d="M45.006 32.8165C44.4094 33.1395 44.0758 34.5337 44.5341 34.7891C44.8266 34.9521 44.6035 35.2466 44.1873 35.2466C43.3647 35.2466 42.7264 35.8714 42.01 37.3775C41.575 38.2922 41.5075 38.3784 41.2273 38.3784C40.9358 38.3784 40.9005 38.4349 40.5119 39.5213L40.103 40.6643L40.4066 40.9053C40.7662 41.1908 40.669 41.725 40.1493 42.3207C39.9935 42.4992 39.7702 42.9261 39.653 43.2695C39.4962 43.729 39.3764 43.9096 39.1991 43.954C38.9181 44.0242 38.8928 44.1236 38.7222 45.8232L38.5982 47.0584L38.0589 47.5412C37.6274 47.9277 37.3942 48.2846 36.8909 49.3298C35.6308 51.9462 35.5834 52.0635 35.6497 52.3936C35.6949 52.619 35.6255 52.874 35.405 53.2918C35.2358 53.6127 35.0807 53.9117 35.0604 53.9563C35.0403 54.0009 35.4603 54.0372 35.9939 54.0372L36.9641 54.0372L37.033 53.5362C37.071 53.2607 37.102 52.9173 37.102 52.7732C37.102 52.5925 37.5646 51.9745 38.593 50.7811C40.4332 48.6454 40.5249 48.5146 41.1162 47.1798C42.2838 44.5442 42.348 44.4828 42.98 45.3979C43.9079 46.7412 44.3887 47.3417 44.5362 47.3417C44.7916 47.3417 44.7171 47.6396 44.2709 48.4029C43.987 48.8884 43.773 49.4583 43.6148 50.1495C43.4856 50.7138 43.265 51.5885 43.1245 52.0934C42.9838 52.5983 42.837 53.2421 42.7981 53.5243L42.7272 54.0372L44.2248 54.0356C46.2747 54.0335 47.0582 53.6187 45.7356 53.2358C45.3586 53.1267 45.0569 52.9579 44.913 52.7758L44.6859 52.4882L45.0036 52.1558C45.1783 51.973 45.5488 51.2889 45.8269 50.6355C46.4746 49.1144 46.4675 49.1307 46.798 48.3816C47.2719 47.3076 46.4761 45.0053 45.0544 43.3375C44.8253 43.0687 44.8626 42.0874 45.1043 42.0245C45.4076 41.9455 46.3282 40.0962 46.1882 39.8471C46.1031 39.6956 46.1277 39.6005 46.2954 39.4336L46.5132 39.2167L47.0501 39.5078C47.7671 39.8963 48.2473 39.734 48.6158 38.9785C48.8715 38.4545 49.0296 38.349 49.0296 38.7024C49.0296 38.9561 49.2808 38.9814 49.916 38.7919C50.2214 38.7008 50.3223 38.6203 50.2774 38.5036C50.0988 38.0402 50.0126 37.3901 50.1067 37.2169C50.1631 37.1133 50.2375 36.8948 50.2721 36.7315L50.3349 36.4345L52.1219 36.4345L53.909 36.4345L53.909 36.0717C53.909 35.71 53.9114 35.7084 54.5867 35.6007L55.2644 35.4926L54.5427 35.4776C53.8514 35.4633 53.8235 35.4524 53.882 35.2196C53.9409 34.9851 53.9356 34.9832 53.7277 35.1656C53.5337 35.3358 53.2156 35.3546 50.5183 35.3546C47.6229 35.3546 46.9998 35.2859 47.6524 35.0389C48.4243 34.7466 47.7805 33.3069 46.6579 32.815C46.2 32.6144 45.3779 32.6152 45.006 32.8165ZM31.0239 38.5944L24.8917 38.6484L24.0843 39.0472C22.8472 39.6582 22.2657 40.3361 21.508 42.0501C21.39 42.3174 20.8925 43.4837 20.4027 44.6419C19.9129 45.8002 19.2933 47.258 19.0259 47.8817C18.2718 49.6405 18.4978 50.7414 19.7576 51.4454L20.2408 51.7154L25.6082 51.7444C32.092 51.7792 31.5026 51.9119 32.2192 50.2575C32.4894 49.6339 32.75 49.0629 32.7982 48.9886C32.8679 48.8813 31.8195 48.8536 27.6812 48.8536C21.7151 48.8536 22.2427 48.9893 22.8423 47.6099C23.1 47.0169 23.371 46.386 23.4444 46.2078C23.5866 45.8629 24.5557 43.6186 24.7969 43.0761C25.1518 42.2775 25.1374 42.2318 24.4215 41.8911C24.0603 41.7191 23.7648 41.551 23.7648 41.5173C23.7648 41.4837 26.4206 41.4562 29.6665 41.4562C36.6618 41.4562 35.9096 41.6343 36.7034 39.7897C36.9911 39.1213 37.2107 38.5667 37.1914 38.5573C37.1721 38.5481 34.3967 38.5647 31.0239 38.5944ZM56.8073 38.6488C55.3514 38.8501 53.9562 39.8089 53.3373 41.0333C51.9938 43.6909 51.8551 44.8942 52.7799 45.8693C53.4458 46.5712 53.5188 46.5808 58.2176 46.5834L62.472 46.5858L62.2483 47.1509C62.1254 47.4617 61.9072 47.972 61.7634 48.2848L61.5022 48.8536L55.9758 48.8536C49.2937 48.8536 50.0598 48.6414 49.1525 50.7435L48.733 51.7154L54.8699 51.7433C63.5854 51.7829 63.9693 51.6457 65.5197 47.9357C66.246 46.1978 66.3089 45.7777 65.9558 45.0199C65.3517 43.7229 65.1211 43.67 60.0735 43.67C57.7365 43.67 55.8608 43.6279 55.8608 43.5754C55.8608 43.5235 55.9848 43.2015 56.1364 42.8601C56.2881 42.5186 56.3979 42.2322 56.3804 42.2236C56.3631 42.2149 56.0316 42.0525 55.6439 41.8625L54.9391 41.5171L61.2588 41.5136C68.0742 41.5098 68.0936 41.5083 68.4659 40.9423C68.599 40.7403 69.5233 38.653 69.5233 38.5549C69.5233 38.4771 57.4011 38.5666 56.8073 38.6488Z" fill="url(#paint0_linear_199_1879)"/>
<defs>
<linearGradient id="paint0_linear_199_1879" x1="44.0585" y1="32.665" x2="44.0585" y2="54.0372" gradientUnits="userSpaceOnUse">
<stop stop-color="#09225A"/>
<stop offset="1" stop-color="#D8194B"/>
</linearGradient>
</defs>
</svg>
