<svg width="88" height="87" viewBox="0 0 88 87" fill="none" xmlns="http://www.w3.org/2000/svg">
<circle cx="44.1445" cy="43.3715" r="43.1991" fill="white"/>
<path fill-rule="evenodd" clip-rule="evenodd" d="M42.2513 27.2513C42.2151 27.2876 41.9027 27.3049 41.6716 27.2834L41.4291 27.2609L41.3345 27.3216C41.2825 27.355 41.1773 27.4377 41.1007 27.5053C40.9866 27.6061 40.8449 27.686 40.3136 27.949C39.8484 28.1791 39.63 28.2757 39.5397 28.2911C39.3217 28.3283 38.8105 28.3378 38.6295 28.3081C38.519 28.29 38.177 28.2798 37.6118 28.2779C36.6522 28.2746 36.6446 28.2735 36.5394 28.1166C36.4548 27.9906 36.4063 27.976 35.9081 27.9267C35.6186 27.8981 35.5652 27.8978 35.5108 27.9245C35.4577 27.9507 35.2957 27.9525 34.4571 27.9364C33.9121 27.926 33.2323 27.9069 32.9466 27.8941C32.1434 27.858 30.1991 27.8428 30.028 27.8714C29.6135 27.9406 29.5227 27.9451 29.0173 27.9218C28.5853 27.9019 28.5099 27.9031 28.4885 27.93C28.4747 27.9473 28.4382 28.0323 28.4072 28.119C28.2937 28.4366 28.278 28.5352 28.2766 28.9402C28.2752 29.3152 28.2769 29.3297 28.3576 29.6286C28.4029 29.7965 28.4532 30.0173 28.4695 30.1192C28.5159 30.4097 28.529 31.0299 28.504 31.7548C28.4737 32.6349 28.4493 32.907 28.3581 33.3795C28.3419 33.4635 28.3174 33.6107 28.3036 33.7066C28.2482 34.0923 28.2333 34.1737 28.1782 34.3936C28.068 34.8337 28.0404 34.9731 28.0221 35.1819C27.9883 35.5668 28.0921 36.7029 28.213 37.2722C28.2245 37.3262 28.2784 37.5029 28.3329 37.6648C28.428 37.9476 28.4756 38.1173 28.5258 38.3517C28.5387 38.4117 28.5577 38.5 28.5682 38.548C28.7197 39.242 28.7619 39.8662 28.6799 40.2016C28.4723 41.0504 28.5529 41.5567 28.977 42.0691C29.0688 42.1799 29.15 42.2945 29.1574 42.3238C29.1648 42.353 29.166 42.5655 29.1599 42.7959C29.1507 43.1474 29.1417 43.2333 29.1041 43.329C29.0412 43.4891 28.9819 43.5772 28.8664 43.6822C28.7487 43.7892 28.6212 43.8472 28.396 43.8959L28.2322 43.9314L28.2463 44.042C28.2762 44.2761 28.3021 44.7713 28.3239 45.5265C28.3559 46.6353 28.4097 47.2293 28.4941 47.4046C28.5501 47.5211 28.6769 47.6499 28.8466 47.7628C29.0998 47.9314 29.145 48.0105 29.1886 48.3616C29.2129 48.5574 29.1997 48.8692 29.1405 49.4956C29.0518 50.4336 28.9786 50.9507 28.9129 51.1037C28.8936 51.1486 28.8174 51.2511 28.7434 51.3316C28.5791 51.5105 28.5113 51.6065 28.4003 51.8181L28.3145 51.9817L28.3204 52.8322C28.3278 53.8829 28.3553 54.4072 28.4489 55.2856C28.4824 55.5992 28.4839 55.6937 28.4611 56.021C28.4466 56.2275 28.4255 56.4483 28.4142 56.5116C28.3833 56.6834 28.3437 57.0773 28.332 57.3287L28.3216 57.5509L28.4331 57.6067C28.7105 57.7453 29.2342 57.8842 29.63 57.9242C29.9848 57.96 30.5553 57.9503 30.9788 57.9013C31.3273 57.8609 31.4763 57.857 32.4823 57.8613C33.4587 57.8656 33.6169 57.8617 33.7425 57.8302C33.9429 57.7799 34.0687 57.7846 34.2498 57.849C34.4634 57.925 34.5833 57.9348 34.8007 57.8938C35.1109 57.8353 35.4753 57.8468 35.8475 57.9269C36.1419 57.9903 36.1758 57.9934 36.3405 57.9715C36.4378 57.9585 36.6666 57.9422 36.849 57.9352C37.0314 57.9282 37.3299 57.907 37.5123 57.8882C37.6947 57.8694 38.0529 57.8526 38.3083 57.851L38.7726 57.848L38.8832 57.9134C39.0345 58.003 39.0715 58.0088 39.5141 58.0122C39.955 58.0155 40.1186 58.0417 40.3591 58.1474L40.4642 58.1936L40.547 58.1243C40.7665 57.9409 40.7637 57.9423 40.9189 57.9387L41.0657 57.9353L41.117 58.0845C41.1453 58.1666 41.1957 58.2745 41.229 58.3244C41.3146 58.4526 41.6069 58.8321 41.6555 58.8781C41.6779 58.8993 41.7082 58.9393 41.7229 58.9671C41.7483 59.0153 42.0298 59.211 42.0736 59.211C42.1357 59.211 42.4763 58.8742 42.4846 58.8046C42.4858 58.7942 42.5447 58.7348 42.6155 58.6725C42.7678 58.5385 42.9041 58.4995 43.144 58.5215C43.3058 58.5363 43.5853 58.6017 43.7364 58.6602C43.7546 58.6672 43.7745 58.6747 43.7806 58.6767C43.7867 58.6788 43.8066 58.6861 43.8248 58.693C44.0358 58.7729 44.2751 58.7918 44.4439 58.7419C44.6907 58.669 44.6987 58.6702 44.7732 58.789C44.8097 58.8472 44.86 58.9071 44.8849 58.9222C44.9099 58.9374 44.9306 58.9619 44.931 58.9768C44.9321 59.0183 45.0438 59.0894 45.1007 59.0848C45.1286 59.0825 45.1514 59.0904 45.1514 59.1022C45.1514 59.1271 45.2687 59.1317 45.293 59.1077C45.3019 59.0989 45.3396 59.0902 45.3768 59.0883C45.4139 59.0865 45.4505 59.0756 45.4582 59.0641C45.4658 59.0527 45.4987 59.0368 45.5313 59.029C45.5639 59.0211 45.6058 58.9996 45.6245 58.9812C45.6431 58.9628 45.6662 58.9476 45.6758 58.9474C45.709 58.9468 45.9253 58.8311 45.9253 58.8139C45.9253 58.8044 45.9399 58.7967 45.9578 58.7967C46.004 58.7967 46.1685 58.7091 46.1685 58.6845C46.1685 58.6732 46.181 58.6663 46.1962 58.6691C46.2314 58.6758 46.3255 58.6456 46.3638 58.6154C46.38 58.6025 46.4099 58.5905 46.4301 58.5885C46.4504 58.5866 46.5074 58.5739 46.5567 58.5603C46.8838 58.4701 48.667 58.3997 49.474 58.445C50.0116 58.4752 50.4031 58.4759 50.668 58.4472C51.1283 58.3974 51.3023 58.3845 51.5762 58.3803C51.809 58.3767 51.8941 58.3662 52.0131 58.3267C52.1771 58.2722 52.3435 58.1913 52.4876 58.0962C52.5399 58.0617 52.5993 58.0334 52.6195 58.0334C52.6397 58.0334 52.7561 58.0824 52.8782 58.1423C53.2104 58.3055 53.3793 58.3426 53.8297 58.3515C54.2746 58.3602 54.4843 58.3689 55.3222 58.4127C55.6688 58.4309 56.1364 58.4521 56.3614 58.4599L56.7704 58.4741L56.8579 58.4149C56.9705 58.3387 57.1162 58.2956 57.2624 58.2953C57.3887 58.2951 57.3905 58.2928 57.3527 58.1838C57.319 58.0868 57.3021 58.0777 57.1542 58.0773C57.012 58.077 57.0026 58.0662 57.0026 57.9049C57.0026 57.7439 57.0289 57.7242 57.2701 57.704C57.3844 57.6944 57.5326 57.6805 57.5995 57.673C57.7499 57.6562 58.3605 57.6554 58.4508 57.6719C58.5587 57.6915 58.826 57.7523 59.092 57.8176C59.1406 57.8296 59.2274 57.848 59.2849 57.8586C59.5811 57.9134 59.6998 57.9535 59.9755 58.0922C60.1414 58.1757 60.3905 58.2733 60.4377 58.2733C60.4609 58.2733 60.4708 58.1207 60.4859 57.5264C60.5137 56.4335 60.5108 55.883 60.4742 55.3074C60.438 54.7386 60.4371 53.4756 60.4705 49.9863C60.4873 48.2223 60.4942 47.9619 60.5298 47.7411C60.5691 47.4972 60.5691 47.4861 60.5275 47.2722C60.4918 47.0887 60.4831 46.9201 60.4739 46.2353L60.4628 45.4175L59.9573 45.414C59.6793 45.412 59.4428 45.4015 59.4317 45.3906C59.407 45.3662 59.4555 45.2456 59.5252 45.1581C59.5553 45.1204 59.6571 45.0577 59.778 45.0023L59.9803 44.9097L59.9943 44.5921C60.0073 44.2934 60.0242 44.049 60.0764 43.4003C60.0884 43.2503 60.0982 42.9216 60.098 42.6697C60.0973 41.7709 59.9691 41.2161 59.6701 40.8184C59.4674 40.5487 59.237 40.1985 59.1664 40.0528C59.0577 39.8283 59.0712 39.7885 59.3767 39.4331C59.4791 39.314 59.5943 39.1715 59.6327 39.1164C59.6953 39.0267 59.7001 39.0088 59.6792 38.9457C59.592 38.6838 59.5452 38.5208 59.5452 38.4794C59.5452 38.3931 59.6571 38.2937 59.8545 38.2046C60.2745 38.0151 60.3532 37.9575 60.405 37.8017C60.458 37.6426 60.5183 35.9063 60.5182 34.546C60.518 33.0002 60.4353 31.3373 60.3343 30.8498C60.3169 30.7659 60.2848 30.6117 60.2629 30.5072C60.2191 30.2978 60.2257 30.2393 60.3308 29.9012C60.3588 29.8112 60.3992 29.65 60.4206 29.5429C60.4543 29.3735 60.4557 29.328 60.4314 29.1939C60.4161 29.1091 60.398 28.9294 60.3914 28.7944L60.3793 28.5491L60.2884 28.5261C59.9781 28.4474 59.8264 28.3701 59.6638 28.2081C59.4959 28.0409 59.4516 28.0181 59.2025 27.9703C59.0464 27.9404 58.8178 27.9286 58.1412 27.9155C57.667 27.9064 57.2342 27.8886 57.1794 27.876C57.1247 27.8634 57.0728 27.8527 57.0641 27.8522C57.0554 27.8517 57.0115 27.8193 56.9664 27.7803C56.8962 27.7196 56.8685 27.7097 56.7722 27.7109C56.5904 27.7132 56.5063 27.7676 56.3733 27.9692C56.2415 28.1688 56.1699 28.241 56.0361 28.309C55.8891 28.3837 55.8776 28.3731 55.806 28.0961C55.7023 27.695 55.7152 27.7121 55.4852 27.6708C55.0036 27.5845 54.8328 27.5635 54.294 27.5245C54.136 27.513 53.9618 27.4982 53.9071 27.4915C53.8524 27.4849 53.3302 27.4649 52.7467 27.4472C52.0997 27.4275 51.5691 27.4008 51.3869 27.3787C51.1869 27.3545 50.9089 27.3422 50.5464 27.3414C50.0498 27.3403 49.9909 27.3442 49.8397 27.3884C49.749 27.4149 49.6396 27.4642 49.5965 27.498C49.4609 27.6044 49.3811 27.8233 49.3288 28.2329C49.315 28.3408 49.2962 28.437 49.287 28.4467C49.2778 28.4564 49.1321 28.4826 48.9631 28.5049C48.7942 28.5273 48.5515 28.5621 48.4238 28.5823C47.8649 28.6705 47.5651 28.5327 47.4618 28.1401L47.4217 27.9873L47.2649 27.9756C46.4035 27.911 46.2526 27.8912 46.1851 27.8338C46.1295 27.7865 46.1367 27.745 46.222 27.6199C46.325 27.4691 46.3745 27.3504 46.3391 27.339C46.2479 27.3093 45.3432 27.2573 44.864 27.2542C44.5956 27.2524 44.3827 27.2628 44.2449 27.2842C43.9909 27.3238 43.7279 27.3243 43.1726 27.2865C42.5779 27.246 42.2684 27.2341 42.2513 27.2513ZM34.3774 32.5531C34.5353 32.6053 34.7257 32.7264 34.9247 32.901C35.1182 33.0708 35.2671 33.1711 35.4892 33.2814C35.5683 33.3207 35.6886 33.39 35.7565 33.4354C35.8824 33.5196 36.0662 33.6321 36.9485 34.1649C37.2221 34.3301 37.4624 34.4791 37.4824 34.4961C37.5024 34.5132 37.5251 34.5689 37.5329 34.6199C37.5853 34.9644 37.8782 35.2423 38.3869 35.4302C38.7757 35.5739 38.9306 35.6684 39.0255 35.8198C39.0918 35.9256 39.2078 35.9807 39.8612 36.2168C39.9127 36.2354 39.9992 36.2867 40.0534 36.3307C40.1077 36.3748 40.2224 36.455 40.3085 36.509C40.3945 36.5629 40.5418 36.6582 40.6358 36.7208C40.7299 36.7833 40.9242 36.9108 41.0679 37.0043C41.6713 37.3969 42.4339 37.9014 42.9442 38.2455C43.4444 38.5829 44.3971 39.2218 45.5163 39.9704C45.7595 40.133 46.0541 40.3419 46.171 40.4345C46.4404 40.6479 46.6176 40.7611 47.0861 41.0192C47.5645 41.2827 47.745 41.3945 48.1142 41.6562C48.2784 41.7725 48.6515 42.0225 48.9434 42.2117C49.2352 42.4009 49.5238 42.5881 49.5846 42.6276C49.6454 42.6672 49.7648 42.7595 49.8499 42.8327C49.935 42.9059 50.1025 43.0268 50.222 43.1013C50.3416 43.1758 50.5175 43.2926 50.613 43.3609C51.0448 43.6699 52.01 44.2866 52.2129 44.3831C52.4821 44.5112 52.6289 44.6182 53.0347 44.9822C53.5061 45.4051 53.6136 45.4683 53.9816 45.5395C54.2177 45.5853 54.24 45.5971 54.5019 45.8171C54.6641 45.9533 54.7102 45.9852 55.0453 46.1938C55.1301 46.2466 55.3391 46.3936 55.5096 46.5205C55.6801 46.6473 55.9737 46.8659 56.1621 47.0061C56.3504 47.1464 56.5926 47.3061 56.7003 47.361C56.8932 47.4592 56.8959 47.4618 56.8832 47.5295C56.8762 47.5673 56.8604 47.6934 56.8483 47.8097C56.8045 48.2294 56.7327 48.5828 56.6146 48.9598C56.4678 49.4284 56.4543 49.4734 56.4063 49.6591C56.38 49.7611 56.338 49.9181 56.3131 50.0081C56.2881 50.098 56.2589 50.2035 56.2482 50.2425C56.2375 50.2815 56.2197 50.3453 56.2088 50.3843C56.1978 50.4232 56.1627 50.5523 56.1306 50.671C56.0106 51.1157 55.8054 51.6743 55.6185 52.0649C55.0628 53.2263 54.9496 53.4096 54.7175 53.5251C54.4957 53.6355 54.3047 53.6332 52.5805 53.4996C52.4163 53.4869 52.2024 53.4665 52.1051 53.4543C52.0078 53.4421 51.8486 53.4223 51.7514 53.4104C51.1774 53.3398 50.8775 53.2666 50.7083 53.1558C50.4782 53.0052 50.1109 52.6327 49.529 51.9599C49.4149 51.8279 49.1015 51.4992 48.8325 51.2293C48.4284 50.8239 47.934 50.2994 47.3735 49.6816C47.231 49.5244 47.0548 49.336 46.8371 49.1081C46.5805 48.8394 46.4789 48.7066 46.382 48.5133C46.2763 48.3023 46.0984 48.1364 45.6931 47.871C45.5622 47.7852 45.4003 47.6351 44.9967 47.2253C44.7097 46.9339 44.5708 46.787 43.9447 46.1133C43.7875 45.9442 43.5197 45.6564 43.3495 45.4738C43.1792 45.2911 42.9504 45.068 42.8409 44.9779C42.478 44.6792 42.3338 44.548 42.1775 44.3741C42.0925 44.2794 41.9134 44.0872 41.7796 43.947C40.9859 43.1151 40.5806 42.6872 40.3962 42.4863C40.2815 42.3614 40.0648 42.1259 39.9147 41.9629C39.7645 41.7999 38.9324 40.9698 38.0655 40.1182C36.7014 38.7781 36.4633 38.5346 36.2954 38.3081C36.1381 38.096 35.9145 37.8607 35.1143 37.0651C34.5713 36.5253 33.7699 35.7157 33.3333 35.2659C32.8967 34.8161 32.3722 34.2862 32.1677 34.0883C31.7967 33.7291 31.7959 33.7281 31.7078 33.5225C31.6594 33.4092 31.6272 33.3103 31.6364 33.3027C31.6456 33.2951 31.7228 33.2763 31.8079 33.2611C32.1709 33.1959 32.3651 33.1284 32.9234 32.8733C33.4273 32.643 33.5484 32.5933 33.7094 32.5504C33.8679 32.5082 34.2463 32.5097 34.3774 32.5531ZM52.7492 32.9567C53.101 33.1333 53.3518 33.2791 53.6745 33.4945C53.918 33.6571 54.2007 33.8289 54.3028 33.8763L54.4884 33.9625L54.4752 34.576C54.4589 35.3292 54.4305 35.4991 54.1935 36.258C54.0122 36.8383 53.978 37.0578 53.9391 37.8938C53.912 38.4743 53.8297 38.5982 53.4865 38.575C53.2611 38.5597 53.1338 38.4935 52.8878 38.2636C52.7803 38.1631 52.6609 38.0649 52.6225 38.0453C52.4456 37.9551 51.0642 37.0104 50.867 36.8447C50.7453 36.7426 50.5276 36.5787 50.3832 36.4804C50.2387 36.3822 50.013 36.2282 49.8816 36.1382C49.7502 36.0483 49.4469 35.8078 49.2076 35.6039C48.673 35.1486 48.5695 35.0687 48.4122 34.9902C48.3441 34.9562 48.1924 34.8413 48.075 34.7348C47.9576 34.6284 47.789 34.493 47.7004 34.4341C47.545 34.3306 47.3625 34.1376 47.3625 34.0767C47.3625 34.0322 47.3968 34.0177 47.661 33.951C47.7947 33.9172 47.934 33.8811 47.9705 33.8708C48.0392 33.8513 48.2657 33.792 48.7223 33.6742C48.8682 33.6365 49.0771 33.5824 49.1866 33.5539C49.3994 33.4985 49.7912 33.3972 50.1152 33.3138C50.2246 33.2857 50.3938 33.2415 50.4911 33.2156C50.8347 33.1242 51.0013 33.0834 51.1544 33.0528C51.2395 33.0359 51.3539 33.0124 51.4087 33.0005C51.5722 32.9652 51.955 32.8304 52.0555 32.7727C52.1071 32.743 52.1757 32.7178 52.2079 32.7166C52.2422 32.7153 52.4668 32.8149 52.7492 32.9567ZM34.2709 46.4043C34.562 46.638 35.9962 48.0093 36.797 48.8195C37.2398 49.2675 37.7915 49.784 38.4741 50.3896C38.6626 50.5568 38.9064 50.7741 39.0158 50.8724C39.1253 50.9708 39.3452 51.1674 39.5046 51.3093C40.1573 51.8905 40.4565 52.1666 40.52 52.2464C40.6299 52.3846 40.6662 52.4506 40.6589 52.499C40.6512 52.5501 40.644 52.5529 40.0219 52.7504C39.7681 52.831 39.5887 52.9019 39.5003 52.9566C39.2695 53.0993 38.9153 53.2049 38.5294 53.2461C38.365 53.2637 38.0115 53.3493 37.8596 53.4083C37.7971 53.4327 37.6685 53.4907 37.5739 53.5373C37.3745 53.6355 37.1007 53.7417 36.9264 53.7883C36.6038 53.8748 36.559 53.8777 35.6567 53.8721L34.7739 53.8666L34.665 53.8082C34.5135 53.7268 34.1707 53.4382 33.632 52.9384C33.473 52.7909 33.3682 52.7154 33.2049 52.6308C33.1209 52.5873 33.011 52.508 32.9607 52.4547C32.764 52.2464 32.7005 52.1964 32.5145 52.1033C32.1942 51.943 32.1421 51.8812 32.1111 51.6246C32.0877 51.4316 32.1151 50.9857 32.1575 50.8695C32.175 50.8215 32.2585 50.6351 32.343 50.4551C32.4856 50.1519 32.6286 49.8136 32.7488 49.4956C32.776 49.4236 32.8656 49.2077 32.948 49.0158C33.1934 48.444 34.1004 46.3566 34.1111 46.3389C34.1304 46.3071 34.1702 46.3234 34.2709 46.4043Z" fill="url(#paint0_linear_199_1863)"/>
<defs>
<linearGradient id="paint0_linear_199_1863" x1="44.2873" y1="27.2437" x2="44.2873" y2="59.211" gradientUnits="userSpaceOnUse">
<stop stop-color="#09225A"/>
<stop offset="1" stop-color="#D8194B"/>
</linearGradient>
</defs>
</svg>
