<svg width="98" height="98" viewBox="0 0 98 98" fill="none" xmlns="http://www.w3.org/2000/svg">
<circle cx="48.6803" cy="48.6542" r="45.5" transform="rotate(-4 48.6803 48.6542)" fill="white"/>
<path fill-rule="evenodd" clip-rule="evenodd" d="M18.7203 50.5783C19.0219 54.8116 19.2751 58.3234 19.2831 58.3824C19.291 58.4413 19.3145 58.7217 19.3352 59.0055L19.3729 59.5214L19.426 59.5035C19.4552 59.4936 19.5679 59.4637 19.6764 59.4369C19.7849 59.4101 19.9106 59.3782 19.9557 59.366C20.0009 59.3538 20.182 59.3073 20.3582 59.2626C20.8763 59.1314 20.9256 59.1187 21.5492 58.9561C21.7479 58.9043 21.966 58.8477 22.0337 58.8304C22.3062 58.7609 22.5226 58.7044 22.6003 58.6825C22.6454 58.6698 22.7526 58.6412 22.8384 58.6189L22.9944 58.5784L22.7891 55.523L22.5838 52.4677L23.7526 52.3817L24.9214 52.2957L24.8949 51.9023C24.8803 51.686 24.8678 51.4604 24.8671 51.4009C24.8664 51.3415 24.8425 50.8975 24.814 50.4143C24.7855 49.9311 24.7549 49.3622 24.746 49.15L24.7298 48.7641L23.529 48.8481L22.3282 48.9321L22.2344 47.5905C22.1828 46.8526 22.1424 46.2478 22.1446 46.2466C22.1468 46.2454 22.7658 46.1982 23.52 46.1418C24.2743 46.0854 24.8951 46.035 24.8997 46.0298C24.9043 46.0246 24.9096 45.9176 24.9116 45.7921C24.9183 45.3675 24.9311 44.7813 24.9371 44.6219C24.9405 44.5347 24.9446 44.3809 24.9463 44.2801C24.9481 44.1793 24.9527 43.9767 24.9567 43.83C24.9655 43.5055 24.9752 43.0961 24.9801 42.838C24.9821 42.7326 24.9878 42.6011 24.9927 42.5459C24.9976 42.4906 25.001 42.4361 25.0002 42.4247C24.9992 42.4082 24.3052 42.4525 21.5854 42.6426L18.1719 42.8813L18.7203 50.5783ZM77.9511 38.9409C77.9476 38.9449 77.8329 38.9643 77.6963 38.984C77.5597 39.0037 77.3624 39.0332 77.2577 39.0496C76.9777 39.0933 76.6791 39.1393 76.4636 39.1719C76.3589 39.1877 76.2324 39.2074 76.1823 39.2157C76.1323 39.224 75.9983 39.2446 75.8845 39.2615C75.7707 39.2784 75.6367 39.2991 75.5867 39.3076C75.5368 39.316 75.4028 39.337 75.289 39.3541C75.1752 39.3712 74.9481 39.4056 74.7843 39.4305C74.6205 39.4554 74.3896 39.4899 74.2712 39.5072C74.1529 39.5245 74.0263 39.5445 73.99 39.5515C73.9537 39.5586 73.8607 39.573 73.7832 39.5836C73.7058 39.5941 73.6127 39.6083 73.5764 39.6151C73.5401 39.6219 73.3689 39.6484 73.1959 39.6741C73.0229 39.6997 72.8405 39.7274 72.7905 39.7357C72.7057 39.7497 72.5493 39.7736 72.079 39.8446C71.9744 39.8604 71.8869 39.8736 71.8846 39.874C71.8823 39.8743 72.1168 43.2543 72.4056 47.385L72.9308 54.8952L73.0022 54.8992C73.0414 54.9014 73.1676 54.9043 73.2827 54.9056C73.3978 54.9069 73.5898 54.9092 73.7095 54.9106C73.8292 54.912 74.0286 54.9129 74.1528 54.9126C74.2769 54.9123 74.5291 54.9128 74.7131 54.9137C75.8578 54.9193 76.2865 54.9201 76.695 54.9175C76.8375 54.9166 76.9843 54.9172 77.0212 54.9189C77.0581 54.9206 77.2199 54.9212 77.3807 54.9201C77.5416 54.9191 77.6771 54.9202 77.6819 54.9226C77.6867 54.925 77.7996 54.9243 77.9328 54.921C78.0659 54.9177 78.1938 54.917 78.2169 54.9193C78.2401 54.9216 78.3869 54.9223 78.5431 54.9207C78.9833 54.9164 79.1273 54.9169 79.1392 54.9227C79.2024 54.9534 79.1888 54.5878 79.0559 52.6881L78.9511 51.1891L77.6653 51.2748L76.3794 51.3604L76.2844 50.0025L76.1895 48.6445L77.2834 48.5638L78.3773 48.483L78.2689 46.8721L78.1605 45.2611L77.0243 45.3363L75.8882 45.4115L75.8092 44.3444C75.7658 43.7575 75.7356 43.2714 75.7421 43.264C75.7658 43.237 75.9774 43.2023 76.3415 43.1656C76.547 43.1449 76.7412 43.1242 76.7731 43.1196C76.8049 43.115 77.0366 43.0914 77.2878 43.0671C77.539 43.0428 77.7482 43.0205 77.7526 43.0175C77.757 43.0146 77.895 42.9974 78.0593 42.9793C78.2236 42.9612 78.3634 42.9427 78.37 42.9382C78.3765 42.9336 78.3189 42.0285 78.2419 40.9268L78.1018 38.9237L78.0297 38.9287C77.99 38.9315 77.9547 38.937 77.9511 38.9409ZM55.4911 41.0864C55.4904 41.0915 55.4904 41.0996 55.4911 41.1042C55.4918 41.109 55.5077 41.2127 55.5264 41.3348C55.6509 42.1479 55.7182 42.5986 55.7795 43.0311C55.7968 43.1535 55.8248 43.3425 55.8418 43.4512C55.8587 43.5598 55.8944 43.797 55.9211 43.9782C55.9477 44.1595 55.9835 44.4004 56.0006 44.5136C56.0176 44.6268 56.0468 44.827 56.0653 44.9585C56.0839 45.0899 56.1208 45.3457 56.1474 45.5269C56.174 45.7082 56.2098 45.9566 56.227 46.079C56.2441 46.2013 56.2722 46.3941 56.2895 46.5073C56.3067 46.6205 56.3373 46.8319 56.3575 46.9769C56.3776 47.122 56.3991 47.2553 56.4053 47.2732C56.4155 47.3028 56.4139 47.3035 56.3877 47.2818C56.3593 47.2584 56.2663 47.0762 55.8631 46.2542C55.7523 46.0285 55.6224 45.7642 55.5744 45.6669C55.3274 45.1668 54.5422 43.5647 54.2453 42.9553C54.1526 42.765 54.0688 42.5948 54.0591 42.5772C54.0493 42.5596 53.9848 42.4293 53.9157 42.2876C53.7401 41.9277 53.6504 41.7458 53.6299 41.7084C53.6203 41.6908 53.5821 41.6148 53.5451 41.5396C53.4854 41.4183 53.4725 41.4026 53.4311 41.4005C53.3844 41.3982 53.1919 41.435 53.037 41.4758C52.9918 41.4877 52.8698 41.5187 52.7659 41.5448C52.6619 41.5708 52.5436 41.6017 52.5031 41.6133C52.4625 41.6249 52.3148 41.6648 52.1748 41.702C52.0349 41.7392 51.8687 41.7844 51.8056 41.8025C51.693 41.8349 51.525 41.8815 51.1986 41.9709C50.8252 42.0733 50.6389 42.1279 50.6046 42.145L50.5682 42.1631L51.0193 48.6134C51.2673 52.1611 51.4757 55.0752 51.4822 55.0892C51.493 55.1122 51.657 55.1033 53.1673 54.9977L54.8403 54.8807L54.8184 54.72C54.8064 54.6316 54.7869 54.4775 54.7752 54.3776C54.7634 54.2778 54.7447 54.1208 54.7336 54.0289C54.7224 53.937 54.6801 53.543 54.6394 53.1534C54.5987 52.7637 54.5558 52.3632 54.544 52.2634C54.5322 52.1635 54.4944 51.7916 54.4601 51.437C54.4257 51.0824 54.3927 50.7664 54.3868 50.7348C54.3771 50.6837 54.3071 49.8147 54.3084 49.7624C54.3114 49.6444 54.4972 49.9795 55.1235 51.2325C55.2053 51.3962 55.2836 51.5517 55.2976 51.5782C55.3115 51.6047 55.4169 51.8145 55.5318 52.0445C55.888 52.7573 56.0855 53.1511 56.1245 53.2264C56.1451 53.2661 56.2414 53.4579 56.3385 53.6525C56.4357 53.8471 56.523 54.0207 56.5326 54.0384C56.5422 54.056 56.5732 54.1175 56.6015 54.175C56.6298 54.2325 56.6645 54.3013 56.6786 54.3277C56.6927 54.3542 56.7973 54.5585 56.9109 54.7817L57.1176 55.1875L57.295 55.1746C57.3925 55.1675 57.5655 55.1481 57.6793 55.1315C58.0983 55.0704 58.5224 55.006 58.7962 54.962C58.9508 54.9371 59.1592 54.9038 59.2593 54.8879C59.6266 54.8296 59.932 54.7742 59.9476 54.7631C59.958 54.7556 59.9471 54.5651 59.916 54.2118C59.8899 53.9149 59.8193 53.0238 59.7593 52.2316C59.5701 49.7381 59.4549 48.2371 59.3842 47.3478C59.2158 45.2299 59.1631 44.5506 59.0285 42.7623C58.9497 41.7151 58.8813 40.8548 58.8766 40.8505C58.8648 40.8399 55.4928 41.0748 55.4911 41.0864ZM29.006 43.1488C28.9696 43.155 28.8431 43.1747 28.7248 43.1926C27.8509 43.325 27.1803 43.6643 26.5701 44.283C26.4913 44.3629 26.2666 44.6672 26.1599 44.8385C25.6652 45.6326 25.3674 46.7674 25.2862 48.1676C25.2782 48.3055 25.2725 48.4969 25.2736 48.5929C25.2747 48.689 25.2754 48.8238 25.275 48.8924C25.2721 49.4628 25.4189 51.5545 25.4947 52.0228C25.5434 52.3239 25.606 52.6632 25.6462 52.8444C25.7002 53.0876 25.7664 53.3646 25.7852 53.4255C25.7962 53.4614 25.8223 53.5532 25.8432 53.6295C26.0983 54.5635 26.5579 55.4589 27.068 56.0155C27.2093 56.1697 27.5198 56.4419 27.686 56.5572C28.2169 56.9257 28.9215 57.1345 29.7352 57.1646C29.9329 57.1719 30.6522 57.115 30.8578 57.0757C31.7584 56.9038 32.3932 56.551 32.9507 55.9124C33.4491 55.3415 33.7089 54.8242 33.9387 53.9456C33.9822 53.7793 34.0079 53.6613 34.055 53.4131C34.0883 53.2378 34.1415 52.849 34.1609 52.6401C34.1712 52.5295 34.1837 52.3976 34.1888 52.3469C34.2001 52.2347 34.223 51.7574 34.2299 51.4952C34.2482 50.7868 34.1882 49.6735 34.0877 48.8576C33.9338 47.6078 33.7478 46.7495 33.4573 45.9485C33.2268 45.3133 32.8482 44.669 32.4613 44.2539C31.7834 43.5265 30.8388 43.1155 29.8569 43.1206C29.765 43.1211 29.6708 43.1196 29.6476 43.1174C29.5845 43.1113 29.0819 43.1359 29.006 43.1488ZM34.6537 49.6581L35.1338 56.525L36.8646 56.404L38.5953 56.283L38.5893 56.1794C38.586 56.1224 38.5847 56.0644 38.5863 56.0506C38.5896 56.0228 38.5808 55.6597 38.5678 55.2863C38.5632 55.1538 38.5563 54.9484 38.5526 54.8296C38.5489 54.7109 38.5321 54.2589 38.5152 53.8253C38.4984 53.3916 38.4839 52.9732 38.4831 52.8955C38.4823 52.8177 38.479 52.6532 38.4759 52.53C38.4727 52.4067 38.4737 52.3018 38.478 52.2968C38.51 52.2601 38.675 52.662 39.0921 53.7933C39.1151 53.8557 39.1414 53.925 39.1506 53.9473C39.1597 53.9695 39.1817 54.0279 39.1995 54.077C39.2173 54.1261 39.2972 54.3415 39.377 54.5556C39.4568 54.7697 39.5369 54.9851 39.555 55.0341C39.573 55.0832 39.5963 55.1453 39.6067 55.172C39.6171 55.1987 39.7322 55.5053 39.8624 55.8532C39.9927 56.2011 40.1098 56.5112 40.1227 56.5423C40.1643 56.6429 40.1677 56.6441 40.3326 56.621C40.4148 56.6094 40.6573 56.5765 40.8714 56.5478C41.0855 56.5191 41.2867 56.4906 41.3185 56.4845C41.3503 56.4785 41.4508 56.4638 41.542 56.4519C41.6331 56.4401 41.7896 56.4177 41.8897 56.4021C41.9898 56.3865 42.2169 56.3518 42.3943 56.325C43.0907 56.2196 43.7351 56.1107 43.7481 56.096C43.7516 56.0921 43.743 56.0578 43.7291 56.0198C43.6863 55.9033 43.4612 55.3256 43.4118 55.2055C43.3861 55.1432 43.3085 54.9502 43.2393 54.7765C43.1702 54.6028 43.0838 54.3879 43.0474 54.2989C43.011 54.2099 42.9107 53.9623 42.8244 53.7486C42.7381 53.535 42.6107 53.2218 42.5411 53.0528C42.4716 52.8837 42.3081 52.4832 42.178 52.1627C42.0478 51.8423 41.8654 51.3944 41.7727 51.1675L41.6041 50.755L41.6388 50.7175C41.6579 50.697 41.7261 50.6248 41.7903 50.5573C42.3374 49.9821 42.7199 49.1132 42.8583 48.1313C42.9048 47.8011 42.9034 47.492 42.8528 46.9559C42.7782 46.1648 42.7058 45.8383 42.4871 45.3073C42.1682 44.533 41.7222 43.8952 41.1564 43.4045C40.8023 43.0974 40.4957 42.9067 40.0986 42.7466C39.7271 42.5968 39.4255 42.5227 39.1511 42.514C38.7668 42.5017 38.4071 42.5202 35.8591 42.6833L34.1735 42.7912L34.6537 49.6581ZM42.6549 42.2626C42.6479 42.2797 42.6943 43.0682 42.7582 44.0206L42.8741 45.7475L43.8361 45.6845L44.7981 45.6215L45.1508 50.6649L45.5035 55.7084L47.3135 55.586L49.1236 55.4637L48.7956 50.7139L48.4677 45.9641L49.4535 45.8909L50.4393 45.8176L50.3126 44.0665L50.1859 42.3154L50.0098 42.3086C49.913 42.3048 49.7283 42.3005 49.5994 42.299C49.4706 42.2976 49.2371 42.2949 49.0806 42.2931C48.9241 42.2913 48.6907 42.2893 48.5619 42.2886C48.4331 42.2879 48.241 42.2858 48.1351 42.284C48.0292 42.2821 47.7995 42.2794 47.6246 42.2779C47.4498 42.2764 47.2201 42.2735 47.1141 42.2715C47.0082 42.2695 46.8237 42.2677 46.7041 42.2675C46.5846 42.2672 46.3436 42.2654 46.1687 42.2635C45.9938 42.2615 45.7077 42.2591 45.5329 42.2581C45.1078 42.2557 44.7999 42.2529 44.6878 42.2505C44.5701 42.248 44.2266 42.2456 43.9266 42.2453C43.7978 42.2451 43.6096 42.2435 43.5083 42.2417C43.407 42.2398 43.2037 42.239 43.0566 42.2397C42.9095 42.2405 42.7618 42.239 42.7283 42.2363C42.6804 42.2325 42.6648 42.2381 42.6549 42.2626ZM60.2092 48.2637L60.6875 55.1043L62.5597 54.9734L64.4319 54.8425L63.9497 48.0064L63.4674 41.1703L61.5991 41.2967L59.7308 41.4231L60.2092 48.2637ZM71.4407 40.8791C71.4317 40.8833 71.1894 40.9152 70.9021 40.95C70.6148 40.9847 70.3612 41.0172 70.3386 41.0222C70.3159 41.0271 70.1592 41.046 69.9903 41.0641C69.8214 41.0823 69.6722 41.0999 69.6586 41.1034C69.6357 41.1092 69.5012 41.1264 69.0619 41.1797C68.9662 41.1913 68.8543 41.2062 68.8134 41.2128C68.7725 41.2194 68.6344 41.2363 68.5067 41.2505C68.3789 41.2647 68.2297 41.283 68.175 41.2913C68.079 41.3058 67.6203 41.3621 66.6165 41.4826C66.352 41.5143 66.0946 41.5468 66.0446 41.5548C65.9945 41.5628 65.8266 41.5831 65.6715 41.5999C65.5163 41.6167 65.3782 41.6334 65.3647 41.6369C65.3511 41.6404 65.228 41.6559 65.0912 41.6713C64.9543 41.6867 64.8013 41.7056 64.7513 41.7131C64.7012 41.7207 64.5819 41.7364 64.4861 41.748C64.3904 41.7597 64.2397 41.7787 64.1512 41.7902L63.9904 41.8113L63.9825 41.8892C63.9782 41.932 64.0278 42.7273 64.0928 43.6565L64.2109 45.3459L65.1723 45.283L66.1336 45.22L66.4805 50.1805L66.8274 55.141L68.658 55.013L70.4885 54.885L70.1272 49.7175L69.7658 44.5499L70.7848 44.4744L71.8038 44.3989L71.696 42.8419C71.6367 41.9855 71.5774 41.192 71.5643 41.0785C71.5406 40.8729 71.5403 40.8721 71.4987 40.8718C71.4757 40.8717 71.4496 40.8749 71.4407 40.8791ZM29.5208 46.0349C29.8626 46.243 30.071 47.378 30.2579 50.0503C30.3129 50.8379 30.3645 51.7988 30.3681 52.1064C30.3766 52.8215 30.3698 53.1498 30.3393 53.5027C30.3032 53.9197 30.2269 54.1957 30.1232 54.2847C30.0692 54.3309 29.9785 54.3342 29.9122 54.2922C29.7384 54.1821 29.5619 53.6442 29.4429 52.8618C29.4243 52.7396 29.4044 52.6174 29.3985 52.5903C29.3773 52.4911 29.2616 51.1087 29.1957 50.1662C29.0986 48.7777 29.0583 47.9389 29.0685 47.5194C29.0912 46.5827 29.1742 46.182 29.3747 46.0403C29.4368 45.9964 29.4563 45.9957 29.5208 46.0349ZM38.1137 45.7063C38.2967 45.7519 38.362 45.7826 38.4851 45.8811C38.739 46.0842 38.9328 46.4383 39.0149 46.8492C39.0927 47.2386 39.1182 48.0452 39.0615 48.3212C38.9847 48.6943 38.8237 49.0165 38.6221 49.2001C38.5248 49.2887 38.3075 49.4195 38.2214 49.4412L38.168 49.4547L38.036 47.5669L37.904 45.6792L37.9434 45.6764C37.9651 45.6749 38.0418 45.6883 38.1137 45.7063Z" fill="url(#paint0_linear_199_1772)"/>
<defs>
<linearGradient id="paint0_linear_199_1772" x1="48.1287" y1="40.7866" x2="49.2925" y2="57.4293" gradientUnits="userSpaceOnUse">
<stop stop-color="#09225A"/>
<stop offset="1" stop-color="#D8194B"/>
</linearGradient>
</defs>
</svg>
