<svg width="92" height="92" viewBox="0 0 92 92" fill="none" xmlns="http://www.w3.org/2000/svg">
<circle cx="45.7617" cy="46.2495" r="45.5" fill="white"/>
<path fill-rule="evenodd" clip-rule="evenodd" d="M35.1628 40.3254L35.1628 43.9804L35.8341 43.6747L36.5053 43.369L36.5268 41.8731L36.5482 40.3774L37.5127 41.5074C38.0432 42.129 38.5022 42.6375 38.5327 42.6375C38.5633 42.6375 39.0223 42.1289 39.5528 41.5073L40.5172 40.3772L40.5547 41.8699L40.5921 43.3625L41.2287 43.6659L41.8652 43.9692L41.8852 42.1513C41.8962 41.1515 41.8962 39.512 41.8852 38.508L41.8652 36.6826L40.2177 38.6123C39.3116 39.6736 38.5484 40.5362 38.5217 40.5291C38.4321 40.5054 37.3271 39.2803 36.5638 38.3585C36.1475 37.8556 35.6619 37.2701 35.4848 37.0573L35.1628 36.6704L35.1628 40.3254ZM17.9386 37.353C17.9386 37.4035 19.5055 38.975 21.4207 40.8453L24.9029 44.2459L26.6823 42.509L28.4617 40.7721L29.7528 42.0347L31.0439 43.2974L31.0439 46.7721L31.0439 50.2468L31.9988 51.161C32.5239 51.6638 33.1315 52.2391 33.3491 52.4395L33.7445 52.8037L33.7235 48.4521L33.7025 44.1004L33.5227 43.7347C33.3849 43.4544 32.6767 42.7148 30.4897 40.5678C27.9349 38.0595 27.5826 37.7402 27.121 37.5139L26.6054 37.2613L22.2721 37.2613C18.8478 37.2613 17.9386 37.2805 17.9386 37.353ZM29.6211 37.3167C29.6211 37.3471 30.5478 38.2768 31.6805 39.3825L33.7399 41.393L33.7399 39.3271L33.7399 37.2613L31.6805 37.2613C30.5478 37.2613 29.6211 37.2862 29.6211 37.3167ZM45.2321 37.3633C43.701 37.7266 42.6515 39.0855 42.6515 40.7047C42.6515 43.155 45.2433 44.7625 47.4818 43.7006C48.7713 43.089 49.4447 41.9548 49.3765 40.5096C49.3312 39.5493 49.0568 38.9111 48.4179 38.2798C47.5416 37.4139 46.4013 37.0859 45.2321 37.3633ZM49.7659 37.3368C49.7659 37.3785 49.8501 37.5749 49.9531 37.7733L50.1403 38.1342L50.1403 40.6626L50.1403 43.1909L49.9531 43.5518C49.8501 43.7503 49.7659 43.9496 49.7659 43.9947C49.7659 44.0538 50.2944 44.0699 51.6568 44.052L53.5477 44.0273L53.9732 43.8232C54.7625 43.4446 55.1866 42.7745 55.1866 41.9061C55.1866 41.3564 54.9969 40.8162 54.6929 40.5001C54.5354 40.3363 54.5353 40.3347 54.6778 40.0255C54.7778 39.8087 54.8207 39.5497 54.8206 39.1649C54.8206 38.6753 54.7932 38.5683 54.5729 38.1959C54.073 37.3505 53.781 37.2613 51.5163 37.2613C50.3618 37.2613 49.7659 37.287 49.7659 37.3368ZM55.5322 37.3003C55.5322 37.3218 55.6165 37.5017 55.7195 37.7002L55.9067 38.0611L55.9058 40.6784L55.9049 43.2958L55.7187 43.6139C55.6163 43.7888 55.5513 43.9617 55.5742 43.998C55.5972 44.0342 56.052 44.0639 56.5851 44.0639C57.649 44.0639 57.6632 44.0566 57.4041 43.6415C57.2618 43.4135 57.2547 43.2721 57.2552 40.6791C57.2556 38.0851 57.2627 37.9458 57.4044 37.7367C57.7111 37.2845 57.669 37.2613 56.5432 37.2613C55.9872 37.2613 55.5322 37.2788 55.5322 37.3003ZM57.9716 37.4259C58.0007 37.5164 58.0872 37.7051 58.1638 37.8454C58.293 38.0819 58.3031 38.3152 58.3031 41.0821L58.3031 44.0639L60.662 44.0639L63.021 44.0639L63.021 43.1538L63.021 42.2437L62.7027 42.4214C62.3979 42.5917 62.327 42.5992 61.0178 42.6001L59.6511 42.6009L59.6514 40.2786C59.6516 38.0867 59.66 37.9427 59.8011 37.7167C60.0795 37.2707 60.0616 37.2613 58.9346 37.2613L57.9185 37.2613L57.9716 37.4259ZM63.3954 37.3374C63.3954 37.3792 63.4681 37.552 63.5569 37.7214C63.7142 38.0215 63.718 38.0965 63.7053 40.6863C63.6931 43.177 63.683 43.3611 63.5439 43.6276C63.4622 43.7839 63.3954 43.9477 63.3954 43.9917C63.3954 44.0483 64.1805 44.0671 66.0872 44.056L68.7789 44.0403L68.8019 43.1742C68.8145 42.6979 68.7984 42.3081 68.7662 42.3082C68.734 42.3083 68.5867 42.3577 68.4388 42.4181C68.2436 42.4977 67.885 42.5278 67.1296 42.5278C66.4581 42.5278 66.0391 42.5585 65.9473 42.6144C65.8461 42.6762 65.7012 42.6814 65.4429 42.6327L65.0804 42.5644L65.0804 41.9792L65.0804 41.394L66.4471 41.3741L67.8138 41.3542L67.8138 40.6243L67.8138 39.8945L66.4284 39.8945L65.043 39.8945L65.043 39.3094L65.043 38.7242L66.57 38.7242C67.9259 38.7242 68.1336 38.7403 68.4235 38.8676L68.7499 39.011L68.7662 38.8494C68.7752 38.7604 68.7921 38.3667 68.8037 37.9744L68.8248 37.2611L66.1101 37.2612C64.281 37.2613 63.3954 37.2861 63.3954 37.3374ZM53.19 38.6491C53.6111 38.8998 53.5942 39.4093 53.1578 39.6253C53.0427 39.6823 52.6201 39.7517 52.2185 39.7796L51.4883 39.8302L51.4883 39.1675L51.4883 38.5048L52.2185 38.5051C52.8122 38.5053 52.9937 38.5322 53.19 38.6491ZM46.6929 38.833C47.7794 39.2075 48.3351 40.3961 47.8775 41.3671C47.6564 41.8362 47.2956 42.2035 46.8721 42.3907C46.4946 42.5574 45.6843 42.6743 45.4198 42.6002C44.2664 42.2771 43.6531 40.8949 44.1933 39.836C44.652 38.9368 45.7342 38.5026 46.6929 38.833ZM16.0715 43.5153C16.0685 48.1915 16.0791 48.3346 16.4757 49.012C16.6054 49.2337 17.6991 50.3584 19.3892 52.0081C21.6224 54.1881 22.1685 54.6838 22.5166 54.8468C23.4518 55.2851 23.3701 55.2782 28.0297 55.3093C30.9682 55.329 32.317 55.3141 32.317 55.2619C32.317 55.22 31.5823 54.469 30.6843 53.593C29.7863 52.717 28.8747 51.7908 28.6586 51.5349L28.2656 51.0696L28.2881 47.9324C28.3004 46.207 28.2893 44.8035 28.2634 44.8135C28.1364 44.8628 25.0811 47.6834 25.0207 47.807C24.9593 47.9326 24.7472 47.7507 23.2421 46.2817L21.5332 44.6136L21.5332 48.1746C21.5332 50.1332 21.5052 51.7525 21.4711 51.7731C21.4084 51.8108 19.2298 49.6961 18.9254 49.3022C18.7631 49.0921 18.7624 49.075 18.7619 45.4986L18.7615 41.9061L17.4178 40.5529L16.0742 39.1997L16.0715 43.5153ZM45.5909 40.0773C45.3747 40.3333 45.1977 40.5863 45.1977 40.6395C45.1977 40.7465 45.9315 41.65 46.0184 41.65C46.0792 41.65 46.6159 41.0429 46.7724 40.797C46.865 40.6517 46.838 40.597 46.4388 40.1204C46.2 39.8353 45.9999 39.6042 45.9943 39.6069C45.9886 39.6096 45.8071 39.8213 45.5909 40.0773ZM53.3509 41.1698C53.7993 41.3962 53.9359 41.7786 53.7295 42.2289C53.5546 42.6105 53.2492 42.7472 52.5721 42.7472C52.2462 42.7472 52.0951 42.7734 52.1272 42.8241C52.159 42.8744 52.0571 42.8949 51.832 42.8836L51.4883 42.8662L51.4883 41.9655L51.4883 41.0649L52.3158 41.0649C52.8879 41.0649 53.2073 41.0972 53.3509 41.1698ZM35.818 44.9142L35.1628 45.2358L35.1628 48.5997L35.1628 51.9636L36.2861 51.9675C36.9039 51.9696 37.6453 51.9713 37.9336 51.9713C38.2219 51.9713 38.778 51.9696 39.1693 51.9675L39.8807 51.9636L39.8807 51.0844L39.8807 50.2051L39.5624 50.3713C39.2745 50.5215 39.1139 50.5408 37.8781 50.5739L36.5121 50.6104L36.4927 47.6015L36.4733 44.5926L35.818 44.9142ZM40.2551 45.3103C40.2551 45.3521 40.3225 45.5154 40.4049 45.6731C40.5468 45.9446 40.5547 46.1042 40.5547 48.6721C40.5547 51.2425 40.5468 51.3993 40.4045 51.6719L40.2543 51.9595L42.4826 51.9798C43.7082 51.9911 44.9216 51.9904 45.179 51.9784L45.6471 51.9567L45.6471 51.119C45.6471 50.6583 45.6324 50.2813 45.6145 50.2813C45.5966 50.2813 45.487 50.3215 45.3711 50.3706C45.2552 50.4198 44.6716 50.4843 44.0744 50.514C43.4772 50.5437 42.7735 50.5889 42.5106 50.6145C42.1506 50.6495 42.0169 50.6367 41.9688 50.5625C41.9337 50.5084 41.9045 50.209 41.9038 49.8973L41.9027 49.3304L43.2881 49.3304L44.6735 49.3304L44.6735 48.5899L44.6735 47.8493L43.5689 47.8905C42.9614 47.9131 42.3559 47.9437 42.2233 47.9585C41.9256 47.9916 41.9027 47.94 41.9027 47.2369L41.9027 46.6916L43.494 46.7126C44.8273 46.7303 45.1309 46.7546 45.3662 46.8627L45.6471 46.9917L45.6471 46.1129L45.6471 45.2342L42.9511 45.2342C41.1348 45.2342 40.2551 45.259 40.2551 45.3103ZM48.5875 45.3422C47.9695 45.5122 47.4519 45.8025 47.0276 46.2169C45.359 47.8467 45.8332 50.6289 47.9538 51.6526C48.5159 51.9239 48.5329 51.9271 49.425 51.9271C50.2513 51.9271 50.3644 51.9102 50.7635 51.7275L51.1996 51.528L51.6414 51.7458C51.8843 51.8656 52.1016 51.9636 52.1241 51.9636C52.1466 51.9636 52.156 51.1983 52.1449 50.263L52.1248 48.5624L51.2824 48.5417C50.7226 48.5279 50.4399 48.5471 50.4399 48.5989C50.4399 48.6419 50.5241 48.8394 50.6271 49.0378C50.9576 49.6748 50.8371 50.2988 50.365 50.3961C49.4216 50.5907 49.3523 50.5944 48.9262 50.4734C48.0433 50.2227 47.4231 49.4843 47.4173 48.677C47.4133 48.1271 47.5547 47.7596 47.9189 47.3737C48.3895 46.8751 48.7182 46.7363 49.4289 46.736C50.0893 46.7357 50.3699 46.8371 50.7929 47.2291L51.0336 47.4521L51.3171 47.2601C51.473 47.1544 51.7176 46.9724 51.8606 46.8557C52.0993 46.6608 52.1133 46.6279 52.0314 46.4524C51.9102 46.1926 51.1303 45.6442 50.6065 45.4506C50.0516 45.2455 49.1209 45.1955 48.5875 45.3422ZM52.4618 45.2732C52.4618 45.2947 52.5461 45.4746 52.6491 45.6731L52.8363 46.034L52.836 48.6879C52.8358 51.2113 52.8283 51.3537 52.6862 51.5814C52.3944 52.049 52.2678 52.0276 55.2325 52.0132L57.9283 52.0002L57.9285 51.1027L57.9286 50.2051L57.6321 50.353C57.3878 50.4747 57.1905 50.5007 56.5132 50.5007C56.0457 50.5007 55.6709 50.5323 55.6446 50.5739C55.619 50.6142 55.2818 50.647 54.8913 50.647L54.1843 50.647L54.1843 49.9887L54.1843 49.3304L55.5322 49.3304L56.8802 49.3304L56.8802 48.5905L56.8802 47.8506L55.5322 47.904L54.1843 47.9574L54.1843 47.3273L54.1843 46.6971L55.7224 46.6971C57.1128 46.6971 57.2888 46.7112 57.5542 46.8434C57.7157 46.9239 57.866 46.9897 57.8882 46.9897C57.9104 46.9897 57.9286 46.5947 57.9286 46.112L57.9286 45.2342L55.1952 45.2342C53.6919 45.2342 52.4618 45.2518 52.4618 45.2732ZM58.6055 48.2178C58.6028 51.0906 58.5953 51.252 58.4529 51.5248C58.2002 52.0085 58.1892 52.0027 59.3132 51.978L60.3235 51.9557L60.1354 51.5932C59.9524 51.2405 59.9478 51.1944 59.9676 49.9156L59.9881 48.6006L61.8415 50.2847L63.695 51.9689L63.695 49.0426L63.695 46.1163L63.8822 45.7165C63.9852 45.4967 64.0694 45.2981 64.0694 45.2755C64.0694 45.2528 63.6145 45.2342 63.0584 45.2342C62.4086 45.2342 62.0475 45.2613 62.0475 45.3103C62.0475 45.3521 62.1149 45.5154 62.1972 45.6731C62.3307 45.9286 62.347 46.1042 62.347 47.2831L62.347 48.6064L62.0662 48.4031C61.6616 48.1102 59.9433 46.549 59.2233 45.8202L58.6083 45.1976L58.6055 48.2178ZM64.4439 45.3409C64.4439 45.4061 64.5113 45.5885 64.5936 45.7462C64.7351 46.017 64.7434 46.1774 64.7434 48.6306C64.7434 51.1538 64.7387 51.2377 64.5795 51.5578C64.4894 51.739 64.4336 51.9049 64.4557 51.9264C64.4777 51.9479 65.2213 51.9661 66.108 51.9668C67.9087 51.9683 68.1424 51.926 68.8424 51.4731C69.7288 50.8995 70.2102 49.916 70.2102 48.6784C70.2102 47.1893 69.5949 46.109 68.4253 45.544L67.8597 45.2708L66.1518 45.2465C64.6164 45.2247 64.4439 45.2342 64.4439 45.3409ZM72.2559 45.3386C71.3468 45.5539 70.8889 46.1441 70.8859 47.1046C70.8823 48.2064 71.3984 48.7116 73.1552 49.3258C74.2288 49.7012 74.5232 49.8527 74.5924 50.0657C74.84 50.8278 72.8728 50.8198 71.3148 50.0524L70.8842 49.8403L70.8842 50.902C70.8842 51.4859 70.9055 51.9636 70.9315 51.9636C70.9576 51.9636 71.0948 51.8936 71.2366 51.8081L71.4943 51.6526L72.1911 51.8165C73.1175 52.0345 74.319 52.0073 74.8898 51.7555C75.6379 51.4255 75.9279 50.9757 75.9347 50.135C75.9408 49.3857 75.6797 48.9151 75.0132 48.4734C74.5636 48.1756 73.1845 47.6802 73.0427 47.7657C73.0089 47.7862 72.9811 47.7681 72.9811 47.7255C72.9811 47.6829 72.9558 47.6553 72.9249 47.6643C72.8514 47.6856 72.4456 47.4332 72.3258 47.2917C72.0725 46.9927 72.3037 46.6907 72.8391 46.6211C73.3986 46.5484 74.018 46.6586 74.7731 46.9651C75.1261 47.1084 75.4571 47.2419 75.5085 47.2618C75.5807 47.2897 75.6021 47.0631 75.6021 46.2712L75.6021 45.2445L75.2839 45.4144C74.9747 45.5793 74.7501 45.6088 74.5808 45.5066C74.5354 45.4792 74.3014 45.4067 74.0609 45.3455C73.5428 45.2137 72.7954 45.2108 72.2559 45.3386ZM67.6699 46.7806C68.07 46.8977 68.4442 47.2221 68.6492 47.6297C68.8795 48.0876 68.8983 49.1485 68.6832 49.5498C68.295 50.2738 67.6141 50.647 66.6812 50.647L66.0914 50.647L66.0914 48.6721L66.0914 46.6971L66.738 46.6971C67.0936 46.6971 67.5129 46.7347 67.6699 46.7806ZM16.069 53.1888L16.0664 55.3284L18.1633 55.3284C20.4727 55.3284 20.5158 55.3186 19.9873 54.9149C19.6082 54.6255 16.5944 51.6997 16.3067 51.3419L16.0714 51.0493L16.069 53.1888ZM47.3101 52.9871C46.4944 53.3487 46.5003 54.7384 47.3192 55.1603C47.6238 55.3173 48.2367 55.3127 48.5568 55.151C48.8142 55.0209 49.0872 54.5597 49.0902 54.2495C49.0916 54.1185 49.0499 54.0847 48.8859 54.0842C48.7727 54.0839 48.503 54.0629 48.2868 54.0375L47.8937 53.9913L47.8937 54.221C47.8937 54.4172 47.9209 54.4506 48.0809 54.4506C48.3137 54.4506 48.331 54.5937 48.0996 54.6055C47.6674 54.6278 47.5192 54.4955 47.5192 54.0871C47.5192 53.7287 47.6967 53.4997 47.9744 53.4997C48.1386 53.4997 48.2187 53.5474 48.2818 53.6826C48.3536 53.8368 48.4181 53.8654 48.6921 53.8654C48.9768 53.8654 49.017 53.8455 49.017 53.7048C49.017 53.463 48.6593 53.0077 48.4 52.9194C48.0587 52.8031 47.6707 52.8273 47.3101 52.9871ZM66.7142 52.9835C66.342 53.1486 66.1689 53.4332 66.1172 53.9651C66.0709 54.4418 66.3064 54.9275 66.6875 55.1413C67.0092 55.3217 67.6056 55.3263 67.9527 55.151C68.2222 55.0149 68.4834 54.5556 68.4862 54.2129L68.4878 54.0117L67.8887 54.0117L67.2896 54.0117L67.2896 54.2312C67.2896 54.4165 67.3187 54.4506 67.4768 54.4506C67.5798 54.4506 67.664 54.4835 67.664 54.5238C67.664 54.564 67.548 54.5969 67.4062 54.5969C67.1012 54.5969 66.9152 54.3891 66.9152 54.0483C66.9152 53.726 67.1029 53.4997 67.3703 53.4997C67.5345 53.4997 67.6146 53.5474 67.6777 53.6826C67.7496 53.8368 67.814 53.8654 68.088 53.8654C68.3751 53.8654 68.4129 53.8463 68.4126 53.7009C68.4122 53.4379 68.132 53.061 67.852 52.9467C67.5013 52.8036 67.09 52.8169 66.7142 52.9835ZM35.1628 54.132L35.1628 55.3494L35.95 55.3102C36.4743 55.284 36.796 55.2333 36.9132 55.1583C37.1658 54.9966 37.22 54.6346 37.0416 54.3004C36.94 54.11 36.9205 54.0065 36.9762 53.9521C37.1255 53.8063 37.0688 53.2884 36.8823 53.0945C36.7202 52.9259 36.6607 52.9145 35.9361 52.9145L35.1628 52.9145L35.1628 54.132ZM39.6163 53.006C39.4037 53.562 38.9072 55.0963 38.9072 55.1973C38.9072 55.3006 38.9683 55.3284 39.1959 55.3284C39.4574 55.3284 39.4912 55.3059 39.5544 55.0906C39.6209 54.864 39.6414 54.8529 39.9911 54.8529C40.3422 54.8529 40.3607 54.8632 40.421 55.0906C40.4815 55.3187 40.4992 55.3284 40.8564 55.3284C41.0612 55.3284 41.2287 55.307 41.2287 55.2808C41.2287 55.2547 41.0543 54.7116 40.8414 54.0739L40.454 52.9145L40.0526 52.9145C39.8002 52.9145 39.6384 52.9485 39.6163 53.006ZM42.9511 54.1215L42.9511 55.3284L43.2477 55.3284L43.5444 55.3284L43.566 54.6922L43.5876 54.0561L43.9996 54.6739C44.3838 55.2502 44.4305 55.2933 44.6923 55.3145L44.9731 55.3372L44.9731 54.1258L44.9731 52.9145L44.6767 52.9145L44.3803 52.9145L44.3584 53.4705L44.3365 54.0265L44.0132 53.4705L43.6898 52.9145L43.3204 52.9145L42.9511 52.9145L42.9511 54.1215ZM54.5587 54.1215L54.5587 55.3284L55.1765 55.3279C55.5164 55.3277 55.9197 55.2935 56.073 55.252C56.5619 55.1193 56.7307 54.6567 56.4274 54.2801C56.2826 54.1002 56.281 54.0798 56.3985 53.9049C56.5506 53.678 56.4915 53.2664 56.2769 53.0567C56.1512 52.9339 56.0239 52.9145 55.345 52.9145L54.5587 52.9145L54.5587 54.1215ZM58.9713 53.112C58.9274 53.2247 58.8238 53.5577 58.7412 53.8521C58.6584 54.1465 58.5268 54.5251 58.4486 54.6933C58.3703 54.8615 58.3056 55.0732 58.3047 55.1638C58.3033 55.3071 58.3415 55.3284 58.6005 55.3284C58.8732 55.3284 58.9032 55.3086 58.961 55.0906C59.0213 54.8632 59.0398 54.8529 59.3909 54.8529C59.7405 54.8529 59.7611 54.864 59.8276 55.0906C59.894 55.3168 59.915 55.3284 60.261 55.3284C60.5023 55.3284 60.6244 55.2976 60.624 55.2369C60.6236 55.1867 60.457 54.6518 60.2537 54.0483L59.884 52.9511L59.4675 52.9292C59.0717 52.9083 59.0472 52.9174 58.9713 53.112ZM62.347 54.1215L62.347 55.3284L62.6436 55.3284L62.9403 55.3284L62.9619 54.6883L62.9836 54.0483L63.4125 54.6883C63.8174 55.2925 63.8562 55.3284 64.1052 55.3284L64.369 55.3284L64.369 54.1215L64.369 52.9145L64.0644 52.9145L63.7598 52.9145L63.7706 53.4083C63.7764 53.6799 63.7786 53.9349 63.7753 53.9752C63.7673 54.0719 63.3424 53.4549 63.2087 53.1523C63.1099 52.929 63.0805 52.9145 62.7253 52.9145L62.347 52.9145L62.347 54.1215ZM36.2674 53.4943C36.3189 53.4973 36.361 53.582 36.361 53.6826C36.361 53.8431 36.3287 53.8654 36.0965 53.8654C35.8224 53.8654 35.7078 53.7429 35.7889 53.5364C35.8155 53.4686 35.8973 53.4386 36.0029 53.4578C36.0968 53.4748 36.2159 53.4913 36.2674 53.4943ZM55.792 53.5692C55.8525 53.6649 55.5607 53.8066 55.3607 53.7786C55.2705 53.766 55.1855 53.6982 55.1718 53.6277C55.1514 53.523 55.2015 53.4997 55.4475 53.4997C55.6128 53.4997 55.7678 53.5309 55.792 53.5692ZM40.154 54.2812C40.1392 54.2957 40.0606 54.2821 39.9793 54.251C39.8506 54.2018 39.8407 54.1616 39.9026 53.9386L39.9736 53.6826L40.0773 53.9688C40.1342 54.1262 40.1687 54.2668 40.154 54.2812ZM59.4984 54.0018C59.5601 54.2122 59.5512 54.2312 59.3907 54.2312C59.2254 54.2312 59.2202 54.2171 59.2962 53.9752C59.388 53.6831 59.4054 53.6854 59.4984 54.0018ZM36.4091 54.4881C36.4774 54.6618 36.2917 54.8163 36.0148 54.8163C35.7837 54.8163 35.7619 54.7974 35.7619 54.5969C35.7619 54.3894 35.7783 54.3775 36.0637 54.3775C36.2641 54.3775 36.3803 54.4147 36.4091 54.4881ZM55.7943 54.5238C55.7943 54.6006 55.6988 54.6402 55.4761 54.6559C55.2432 54.6725 55.1578 54.6512 55.1578 54.5767C55.1578 54.4135 55.2473 54.3691 55.5295 54.3922C55.7051 54.4067 55.7943 54.451 55.7943 54.5238Z" fill="url(#paint0_linear_199_1793)"/>
<defs>
<linearGradient id="paint0_linear_199_1793" x1="46.0006" y1="36.6704" x2="46.0006" y2="55.3494" gradientUnits="userSpaceOnUse">
<stop stop-color="#09225A"/>
<stop offset="1" stop-color="#D8194B"/>
</linearGradient>
</defs>
</svg>
