<svg width="92" height="92" viewBox="0 0 92 92" fill="none" xmlns="http://www.w3.org/2000/svg">
<circle cx="46.4258" cy="46.0581" r="45.5" fill="white"/>
<path fill-rule="evenodd" clip-rule="evenodd" d="M16.3267 40.0558C15.1228 40.3591 14.5385 41.5333 14.6633 43.3983C14.7456 44.6263 15.0903 45.2398 16.3932 46.4775C17.6824 47.7021 18.0837 48.2649 18.0974 48.8673C18.1101 49.434 17.8344 49.7889 17.3814 49.7889C16.8822 49.7889 16.6176 49.3582 16.6176 48.546L16.6176 47.8661L15.624 47.8661C14.9119 47.8661 14.6256 47.9039 14.6132 47.9997C14.5517 48.4751 14.5616 48.8696 14.6525 49.5753C14.7767 50.5395 15.0999 51.0588 15.8371 51.4781C16.2961 51.7392 16.4412 51.7647 17.4456 51.76C18.6731 51.7543 19.0145 51.6404 19.5923 51.0442C20.0638 50.5576 20.2939 49.8085 20.2939 48.7597C20.2939 47.3132 20.043 46.8263 18.4879 45.2556C16.7573 43.5074 16.4469 42.8997 16.9616 42.2666C17.1413 42.0455 17.274 41.9868 17.5377 42.0118C17.9424 42.0503 18.124 42.3356 18.2214 43.0859L18.2872 43.5933L19.2891 43.5933L20.2909 43.5933L20.2367 42.5923C20.1729 41.4104 19.91 40.8393 19.212 40.3655C18.8218 40.1006 18.6483 40.0601 17.7216 40.0171C17.1448 39.9905 16.517 40.008 16.3267 40.0558ZM52.3593 40.1131C51.8281 40.2507 51.3934 40.5384 51.3934 40.7527C51.3934 40.8172 51.2459 41.0047 51.0658 41.1693C50.5983 41.5962 50.5116 42.0361 50.5109 43.9814C50.5102 45.5715 50.5261 45.7088 50.7153 45.7567C50.8301 45.7857 50.946 45.9371 50.9781 46.0996C51.0293 46.3594 51.0074 46.3854 50.7729 46.342L50.5102 46.2934L50.5102 47.7241C50.5102 48.9256 50.5379 49.165 50.6836 49.219C50.8186 49.2692 50.8453 49.3963 50.8046 49.7942C50.7601 50.2286 50.7908 50.3401 51.0097 50.5391C51.1512 50.6677 51.2428 50.8343 51.2131 50.9091C51.1218 51.1391 51.8367 51.4769 52.2945 51.4202C52.6231 51.3795 52.722 51.4121 52.8228 51.5943C52.946 51.817 53.2702 51.9082 53.2702 51.7201C53.2702 51.6661 53.4193 51.5901 53.6014 51.5515C53.7836 51.5128 53.9326 51.4445 53.9326 51.3999C53.9326 51.3552 54.0568 51.2639 54.2086 51.197C54.4215 51.1032 54.485 51.1054 54.4863 51.2065C54.4873 51.2787 54.5319 51.4048 54.5855 51.4867C54.6663 51.6103 54.7464 51.5978 55.0548 51.4133C55.5948 51.0904 55.8903 50.751 56.0768 50.2399C56.2379 49.7982 56.2362 49.7889 55.9977 49.7866C55.7576 49.7842 55.7581 49.7812 56.0302 49.5789L56.3062 49.3737L56.3062 45.6556C56.3062 41.9676 56.3041 41.933 56.0432 41.3746C55.7593 40.7667 55.1882 40.2555 54.6519 40.1292C54.0384 39.9847 52.8865 39.9766 52.3593 40.1131ZM74.0656 40.0576C72.8926 40.3471 72.2092 41.5781 72.2804 43.2728L72.3141 44.074L73.4457 44.1044L74.5773 44.1349L74.5773 43.3369C74.5773 42.3793 74.697 42.0309 75.0848 41.86C75.3488 41.7437 75.402 41.7609 75.6532 42.0434C75.9124 42.3349 75.9268 42.4113 75.8746 43.2197C75.7957 44.4442 75.5137 44.9403 73.9331 46.6353C72.6381 48.0241 72.2589 48.9116 72.2589 50.5532L72.2589 51.6049L75.2397 51.6049L78.2205 51.6049L78.2205 50.6969L78.2205 49.7889L76.4541 49.7889C74.8445 49.7889 74.6879 49.7724 74.6901 49.602C74.6954 49.1915 75.1432 48.502 76.0348 47.5311C77.1319 46.3366 77.5431 45.7797 77.9645 44.9179C78.2502 44.3336 78.2727 44.1904 78.2741 42.9524C78.2756 41.6803 78.261 41.593 77.966 41.1074C77.7957 40.827 77.4523 40.4669 77.2029 40.3073C76.7894 40.0425 76.6473 40.015 75.5807 39.9946C74.9377 39.9822 74.2559 40.0106 74.0656 40.0576ZM21.1366 40.1105C21.1103 40.1357 21.1048 40.5961 21.1244 41.1336L21.16 42.1109L22.0628 42.0879L22.9656 42.0648L22.9943 46.8875L23.023 51.7103L24.0983 51.6843L25.1736 51.6583L25.1952 48.8809C25.2071 47.3534 25.2196 45.2043 25.2228 44.105L25.2288 42.1065L26.1396 42.0754L27.0504 42.0444L27.0504 41.083L27.0504 40.1216L24.1174 40.0932C22.5042 40.0776 21.1629 40.0854 21.1366 40.1105ZM29.3811 40.164C29.3616 40.1995 29.2598 40.7572 29.1551 41.4035C29.0505 42.0497 28.8471 43.2755 28.7033 44.1274C28.5594 44.9793 28.3375 46.3252 28.2103 47.1184C28.083 47.9115 27.8993 48.9931 27.8022 49.5219C27.7049 50.0506 27.6202 50.7476 27.6138 51.0708L27.6023 51.6583L28.2923 51.6868C28.8755 51.7109 28.9823 51.6878 28.9823 51.5367C28.9823 51.3749 29.0031 51.3763 29.2038 51.5521C29.3257 51.6587 29.4426 51.7262 29.4638 51.7022C29.4849 51.678 29.5643 51.2768 29.64 50.8105C29.7158 50.3444 29.8028 49.8997 29.8335 49.8224C29.9106 49.628 31.7385 49.6215 31.7508 49.8156C31.7555 49.8891 31.7771 50.0453 31.799 50.1628C31.8207 50.2803 31.8695 50.5927 31.9072 50.8571C32.0311 51.7265 31.9659 51.682 33.1411 51.6978L34.203 51.7121L34.1397 50.9374C34.0517 49.8628 33.8416 48.9731 33.7201 49.1608C33.6636 49.2482 33.6512 49.0888 33.6898 48.7698C33.7317 48.4221 33.6732 47.8167 33.5246 47.0607C33.398 46.4168 33.271 45.7031 33.2424 45.4748C33.1542 44.7704 32.7188 42.1829 32.5859 41.5736C32.4731 41.0563 32.3814 40.9305 31.9831 40.7462C31.9637 40.7372 32.0134 40.6276 32.0935 40.5026C32.2165 40.3107 32.2134 40.2595 32.0735 40.1737C31.8963 40.0651 29.4409 40.0562 29.3811 40.164ZM35.3855 45.8829L35.3855 51.6977L36.3239 51.701L37.2623 51.7044L37.2623 48.2185C37.2623 46.3013 37.2879 44.7575 37.3192 44.7878C37.3736 44.8403 37.471 45.1747 37.9206 46.8513C38.0309 47.2626 38.2804 48.1519 38.4749 48.8275C38.6696 49.5032 38.911 50.3684 39.0115 50.7503C39.1625 51.3239 39.2375 51.4506 39.4427 51.4788C39.5794 51.4975 39.6911 51.5576 39.6911 51.6123C39.6911 51.6669 40.0604 51.7117 40.5118 51.7117L41.3324 51.7117L41.3674 49.2281C41.3866 47.8622 41.3873 46.0354 41.369 45.1689L41.3357 43.5933L41.0378 43.5826L40.7399 43.572L41.0159 43.4978L41.2919 43.4237L41.3223 41.7416L41.3527 40.0594L40.4392 40.0905L39.5255 40.1216L39.5015 42.7921C39.4884 44.2609 39.4708 45.5107 39.4627 45.5695C39.4467 45.6837 39.3738 45.443 39.0903 44.341C38.992 43.9592 38.8147 43.3102 38.6961 42.899C38.5775 42.4877 38.3461 41.6825 38.1819 41.1097L37.8835 40.0682L36.6346 40.0682L35.3855 40.0682L35.3855 45.8829ZM43.8376 40.2355C43.7197 40.3198 43.5396 40.3887 43.4374 40.3887C43.3175 40.3887 43.227 40.5072 43.1825 40.7225C43.1445 40.9061 43.1135 43.4538 43.1135 46.384L43.1135 51.7117L43.9334 51.7117C44.6131 51.7117 44.7594 51.681 44.789 51.5323C44.8223 51.3645 44.8365 51.3645 45.01 51.5323C45.229 51.7444 45.5786 51.7651 45.7828 51.5782C45.9379 51.4361 46.5532 51.4113 46.9264 51.5321C47.2707 51.6434 48.0862 51.1904 48.4473 50.6873C48.906 50.0482 48.9906 49.115 48.9402 45.249C48.8995 42.1226 48.8837 41.9099 48.6576 41.4419C48.3654 40.8369 47.7115 40.2615 47.4912 40.4154C47.4702 40.4301 47.3633 40.37 47.2537 40.2818C46.9675 40.0519 44.1478 40.0136 43.8376 40.2355ZM57.9072 41.0563C57.9071 41.6083 57.9521 41.991 58.0174 41.991C58.0781 41.991 58.1278 42.0419 58.1278 42.1041C58.1278 42.1663 58.076 42.1862 58.0128 42.1484C57.9336 42.1011 57.9025 43.1526 57.9132 45.507C57.9217 47.3921 57.9659 48.9343 58.0114 48.9343C58.057 48.9343 58.183 48.7301 58.2913 48.4804C58.4261 48.1698 58.5034 48.084 58.536 48.2088C58.5952 48.4347 58.1832 49.3616 58.0236 49.3616C57.9492 49.3616 57.907 49.7669 57.907 50.4832L57.907 51.6049L58.9558 51.6049L60.0046 51.6049L60.0046 51.2897C60.0046 51.1023 59.9263 50.9304 59.8114 50.8657C59.63 50.7634 59.6299 50.7566 59.8087 50.7535C59.9806 50.7506 60.0024 50.569 60.0295 48.9076L60.0598 47.065L61.1914 47.0345L62.323 47.0041L62.323 46.0464L62.323 45.0888L61.1608 45.0888L59.9985 45.0888L60.0292 43.5813L60.0598 42.0739L61.5226 42.0911L62.9854 42.1083L62.9854 41.0798L62.9854 40.0512L60.4464 40.0865L57.9074 40.1216L57.9072 41.0563ZM64.3102 44.98C64.3102 49.7533 64.3166 49.9019 64.531 50.1094C64.6524 50.2269 64.7518 50.4336 64.7518 50.5687C64.7518 50.7038 64.8105 50.8712 64.8824 50.9408C64.9542 51.0103 64.975 51.104 64.9286 51.149C64.8821 51.1939 64.7806 51.1466 64.703 51.0438C64.4775 50.7456 64.3102 50.8253 64.3102 51.231L64.3102 51.6049L65.3557 51.6049L66.4013 51.6049L66.4028 49.4077C66.4035 48.1992 66.4327 47.1657 66.4677 47.111C66.5026 47.0563 67.0207 47.0116 67.6189 47.0116L68.7067 47.0116L68.7817 46.5823C68.8229 46.3461 68.8228 45.915 68.7816 45.6245L68.7065 45.0961L67.5847 45.0657L66.4629 45.0354L66.4322 43.5696L66.4016 42.1039L67.9226 42.0741L69.4437 42.0444L69.4437 41.083L69.4437 40.1216L66.8769 40.093L64.3102 40.0643L64.3102 44.98ZM39.9087 40.3845C39.998 40.4392 40.0424 40.5116 40.0073 40.5456C39.9203 40.6298 39.5807 40.4957 39.5807 40.3772C39.5807 40.2555 39.7022 40.2581 39.9087 40.3845ZM46.7769 40.6255C46.6977 40.7021 46.6462 40.7084 46.6462 40.6415C46.6462 40.4989 46.7769 40.3725 46.8505 40.4439C46.8818 40.4742 46.8487 40.5559 46.7769 40.6255ZM58.9245 41.4764C58.7559 41.6396 58.6314 41.5193 58.7249 41.2834C58.7801 41.1441 58.8281 41.1303 58.9263 41.2254C59.0245 41.3204 59.0241 41.3801 58.9245 41.4764ZM15.5558 41.7295C15.5934 41.8246 15.5749 41.8674 15.5124 41.83C15.4523 41.7941 15.4032 41.7195 15.4032 41.6642C15.4032 41.5106 15.4824 41.5445 15.5558 41.7295ZM58.7285 41.7273C58.9314 41.8758 58.924 41.8842 58.5905 41.8842C58.2553 41.8842 58.1507 41.7907 58.3118 41.6349C58.416 41.534 58.4853 41.5493 58.7285 41.7273ZM53.8824 42.1464C54.0844 42.3418 54.1543 42.5254 54.1567 42.8674C54.1585 43.1198 54.1605 44.6672 54.1609 46.306C54.1618 49.2522 54.159 49.2887 53.9126 49.5424C53.5914 49.8733 53.0947 49.8399 52.8149 49.4684C52.6345 49.229 52.6128 48.9422 52.6046 46.6911C52.5882 42.1874 52.5687 42.4851 52.8988 42.1657C53.2616 41.8147 53.5342 41.8094 53.8824 42.1464ZM46.6015 42.3223C46.7872 42.5206 46.816 42.7552 46.8472 44.3235C46.8714 45.5384 46.9238 46.1256 47.0128 46.1804C47.1105 46.2405 47.1086 46.2609 47.005 46.2622C46.9025 46.2634 46.867 46.5891 46.867 47.5298C46.867 48.226 46.8149 48.9404 46.7511 49.1173C46.6158 49.4931 46.252 49.6821 45.6641 49.6821L45.2444 49.6821L45.1731 48.6406C45.1339 48.0678 45.1015 46.3612 45.1012 44.8484L45.1007 42.0978L45.7459 42.0978C46.2614 42.0978 46.4335 42.143 46.6015 42.3223ZM40.1327 43.0592C40.2238 43.1161 40.2486 43.1627 40.1879 43.1627C40.1272 43.1627 40.003 43.1161 39.9119 43.0592C39.8208 43.0023 39.796 42.9557 39.8567 42.9557C39.9174 42.9557 40.0416 43.0023 40.1327 43.0592ZM19.488 43.3797C19.488 43.4384 19.4105 43.4865 19.3159 43.4865C19.2213 43.4865 19.1745 43.4384 19.212 43.3797C19.2495 43.3209 19.3269 43.2728 19.3841 43.2728C19.4413 43.2728 19.488 43.3209 19.488 43.3797ZM15.4491 43.6618C15.5073 43.8084 15.4911 43.8151 15.3506 43.7021C15.159 43.5483 15.139 43.4865 15.281 43.4865C15.3352 43.4865 15.4108 43.5654 15.4491 43.6618ZM23.6832 43.5933C23.6832 43.652 23.6335 43.7001 23.5728 43.7001C23.5121 43.7001 23.4624 43.652 23.4624 43.5933C23.4624 43.5345 23.5121 43.4865 23.5728 43.4865C23.6335 43.4865 23.6832 43.5345 23.6832 43.5933ZM31.0838 45.4047C31.214 46.1953 31.334 47.0245 31.3503 47.2473L31.3801 47.6525L30.7495 47.6525L30.1188 47.6525L30.2557 46.8246C30.331 46.3692 30.4512 45.5882 30.5229 45.0888C30.6722 44.0482 30.782 43.5753 30.8204 43.8069C30.8351 43.8951 30.9535 44.6141 31.0838 45.4047ZM16.0585 44.3736L16.3275 44.7149L15.9757 44.4012C15.6098 44.0747 15.568 44.0166 15.7068 44.0265C15.7524 44.0298 15.9106 44.1859 16.0585 44.3736ZM50.9518 44.1745C50.9518 44.2005 50.9021 44.2513 50.8414 44.2876C50.7807 44.3239 50.731 44.3027 50.731 44.2405C50.731 44.1784 50.7807 44.1274 50.8414 44.1274C50.9021 44.1274 50.9518 44.1485 50.9518 44.1745ZM36.3791 44.2746C36.3791 44.2967 36.2922 44.3809 36.1859 44.4615C36.0108 44.5943 36.0069 44.5906 36.1442 44.4212C36.2885 44.2432 36.3791 44.1867 36.3791 44.2746ZM25.008 45.5161C25.008 45.5748 24.9553 45.6229 24.8911 45.6229C24.8268 45.6229 24.8048 45.5748 24.8424 45.5161C24.8799 45.4573 24.9324 45.4092 24.9593 45.4092C24.9861 45.4092 25.008 45.4573 25.008 45.5161ZM29.7551 45.5161C29.7551 45.5748 29.7025 45.6229 29.6382 45.6229C29.574 45.6229 29.552 45.5748 29.5895 45.5161C29.6271 45.4573 29.6796 45.4092 29.7065 45.4092C29.7333 45.4092 29.7551 45.4573 29.7551 45.5161ZM51.3445 46.7358C51.6958 46.9843 51.4487 47.041 51.0471 46.8041C50.7484 46.6279 50.7202 46.585 50.9031 46.5847C51.0281 46.5845 51.2268 46.6524 51.3445 46.7358ZM29.9901 47.0917C30.1273 47.2611 30.1234 47.2648 29.9483 47.1321C29.842 47.0514 29.7551 46.9672 29.7551 46.9451C29.7551 46.8572 29.8458 46.9137 29.9901 47.0917ZM51.6694 47.2252C51.7563 47.3612 51.5005 47.3612 51.283 47.2252C51.1484 47.141 51.1627 47.1214 51.3593 47.12C51.4923 47.1191 51.6319 47.1665 51.6694 47.2252ZM51.3382 47.4388C51.3758 47.4976 51.3538 47.5457 51.2895 47.5457C51.2253 47.5457 51.1726 47.4976 51.1726 47.4388C51.1726 47.3801 51.1945 47.332 51.2213 47.332C51.2481 47.332 51.3007 47.3801 51.3382 47.4388ZM52.1662 47.4388C52.1662 47.4976 52.1165 47.5457 52.0558 47.5457C51.9951 47.5457 51.9454 47.4976 51.9454 47.4388C51.9454 47.3801 51.9951 47.332 52.0558 47.332C52.1165 47.332 52.1662 47.3801 52.1662 47.4388ZM36.8207 47.5457C36.6032 47.6817 36.3474 47.6817 36.4343 47.5457C36.4718 47.4869 36.6114 47.4396 36.7444 47.4404C36.941 47.4418 36.9553 47.4615 36.8207 47.5457ZM33.5841 48.4203C33.5489 48.5055 33.5227 48.4801 33.5174 48.3557C33.5127 48.2431 33.5387 48.1801 33.5754 48.2155C33.6121 48.251 33.616 48.3432 33.5841 48.4203ZM15.1459 48.7008C15.0075 48.8487 14.9952 48.9241 15.0938 49.0195C15.1648 49.0882 15.1979 49.1687 15.1672 49.1983C15.1366 49.2279 14.9982 49.1038 14.8595 48.9223C14.6188 48.6073 14.6175 48.5955 14.8305 48.6609C14.9531 48.6986 15.0854 48.6794 15.1245 48.6183C15.1635 48.557 15.225 48.5071 15.2612 48.5071C15.2975 48.5071 15.2455 48.5942 15.1459 48.7008ZM15.568 49.8946C15.6067 49.955 15.5624 49.973 15.4642 49.9365C15.2729 49.8655 15.2379 49.7889 15.3967 49.7889C15.4539 49.7889 15.5309 49.8364 15.568 49.8946ZM24.1248 49.9428C24.1248 49.9688 24.0751 50.0196 24.0144 50.056C23.9536 50.0923 23.904 50.071 23.904 50.0089C23.904 49.9467 23.9536 49.8957 24.0144 49.8957C24.0751 49.8957 24.1248 49.9169 24.1248 49.9428ZM23.7936 50.5699C23.7936 50.7882 23.7911 50.7881 23.5671 50.5555C23.4426 50.4261 23.3725 50.2705 23.4114 50.2096C23.517 50.0442 23.7936 50.3049 23.7936 50.5699ZM24.2701 51.1752C24.3196 51.2196 24.2653 51.2798 24.1494 51.3092C24.0167 51.3427 23.8886 51.2851 23.8038 51.1539C23.6818 50.9648 23.6932 50.9523 23.9246 51.02C24.065 51.0611 24.2205 51.131 24.2701 51.1752ZM36.4895 51.1776C36.6913 51.3037 36.517 51.3037 36.2135 51.1776C36.0679 51.117 36.0491 51.0838 36.1583 51.0799C36.2494 51.0766 36.3984 51.1206 36.4895 51.1776ZM44.6291 51.4557C44.5925 51.4912 44.4972 51.4951 44.4176 51.4642C44.3295 51.4301 44.3557 51.4048 44.4843 51.3997C44.6007 51.3951 44.6658 51.4203 44.6291 51.4557Z" fill="url(#paint0_linear_199_1781)"/>
<defs>
<linearGradient id="paint0_linear_199_1781" x1="46.4242" y1="39.9917" x2="46.4242" y2="51.8217" gradientUnits="userSpaceOnUse">
<stop stop-color="#09225A"/>
<stop offset="1" stop-color="#D8194B"/>
</linearGradient>
</defs>
</svg>
