<svg width="93" height="93" viewBox="0 0 93 93" fill="none" xmlns="http://www.w3.org/2000/svg">
<circle cx="46.6737" cy="46.8715" r="43.1991" transform="rotate(-4 46.6737 46.8715)" fill="white"/>
<path fill-rule="evenodd" clip-rule="evenodd" d="M55.0767 22.8308C55.1496 22.9321 55.3949 25.7707 55.6218 29.1386C56.1507 36.989 55.1421 36.0984 62.8909 35.5566C70.7401 35.0077 70.46 34.5068 65.5025 40.2261C60.2272 46.3121 60.1557 45.1005 66.0961 50.2827C69.9637 53.6568 70.8978 54.563 70.6762 54.7264C70.5149 54.8452 67.7369 55.1189 64.0766 55.3766C56.344 55.9209 57.2218 54.8888 57.7742 62.7873C58.1285 67.8553 58.1735 69.2581 57.9819 69.2715C57.8475 69.2809 55.7274 67.5351 53.2708 65.392C48.5328 61.2587 48.0186 60.8966 47.4163 61.2699C47.2137 61.3955 45.2383 63.5632 43.0265 66.0873C38.1805 71.6173 38.7156 71.8624 38.0899 63.825L37.5842 57.3297L30.9291 57.7437C25.7175 58.0679 24.2702 58.1043 24.2567 57.9119C24.2237 57.4398 32.4419 48.2242 32.9261 48.1903C33.2184 48.1699 33.9015 48.6032 34.8902 49.4364C37.1417 51.3334 37.1404 51.3349 36.963 46.8323C36.8829 44.7999 36.8294 43.0943 36.8443 43.0421C36.9309 42.7373 54.5179 22.6763 54.7102 22.6629C54.8389 22.6539 55.0039 22.7294 55.0767 22.8308ZM47.0177 42.1309C46.3764 42.1757 45.6955 37.5911 46.249 36.9545C46.7195 36.4132 51.4323 36.2837 51.4691 36.811C51.4999 37.2504 47.4408 42.1013 47.0177 42.1309ZM48.0918 59.9785C47.4696 59.9032 46.5314 47.3032 47.1075 46.7596C47.9284 45.985 60.2657 45.3924 60.317 46.1249C60.35 46.5968 48.498 60.0276 48.0918 59.9785Z" fill="url(#paint0_linear_19716_34375)"/>
<path d="M31.7002 38.0136C32.1785 38.4294 32.7826 46.5958 32.35 46.7974C31.9105 47.0022 22.8319 39.1236 22.9736 38.6603C23.111 38.2108 31.2346 37.6088 31.7002 38.0136Z" fill="url(#paint1_linear_19716_34375)"/>
<path d="M40.6919 28.1987C46.0897 32.9191 46.0835 32.5226 40.7676 32.9604C35.4624 33.3974 36.0431 33.8956 35.672 28.5889C35.2765 22.933 34.7197 22.9763 40.6919 28.1987Z" fill="url(#paint2_linear_19716_34375)"/>
<path d="M37.1235 37.0101C37.387 37.1343 37.3441 37.2655 36.8526 37.8364L36.2686 38.515L35.6814 38.0076C35.3584 37.7287 35.0225 37.5053 34.9349 37.5114C34.8474 37.5176 35.0715 37.1727 35.433 36.7448L36.0904 35.967L36.4501 36.4147C36.6481 36.661 36.9511 36.9288 37.1235 37.0101Z" fill="url(#paint3_linear_19716_34375)"/>
<defs>
<linearGradient id="paint0_linear_19716_34375" x1="44.7136" y1="15.5557" x2="49.0593" y2="77.7016" gradientUnits="userSpaceOnUse">
<stop stop-color="#09225A"/>
<stop offset="1" stop-color="#D8194B"/>
</linearGradient>
<linearGradient id="paint1_linear_19716_34375" x1="44.7136" y1="15.5557" x2="49.0593" y2="77.7016" gradientUnits="userSpaceOnUse">
<stop stop-color="#09225A"/>
<stop offset="1" stop-color="#D8194B"/>
</linearGradient>
<linearGradient id="paint2_linear_19716_34375" x1="44.7136" y1="15.5557" x2="49.0593" y2="77.7016" gradientUnits="userSpaceOnUse">
<stop stop-color="#09225A"/>
<stop offset="1" stop-color="#D8194B"/>
</linearGradient>
<linearGradient id="paint3_linear_19716_34375" x1="44.7136" y1="15.5557" x2="49.0593" y2="77.7016" gradientUnits="userSpaceOnUse">
<stop stop-color="#09225A"/>
<stop offset="1" stop-color="#D8194B"/>
</linearGradient>
</defs>
</svg>
