<svg width="92" height="92" viewBox="0 0 92 92" fill="none" xmlns="http://www.w3.org/2000/svg">
<circle cx="45.7539" cy="46.0229" r="45.5" fill="white"/>
<path fill-rule="evenodd" clip-rule="evenodd" d="M32.9095 29.6762C32.8584 29.7086 32.8514 30.2989 32.8514 34.607C32.8514 37.2987 32.865 39.5495 32.8815 39.6087C32.898 39.6679 34.719 41.9786 36.9281 44.7436C40.1559 48.7836 40.9729 49.7841 41.0886 49.8386C41.2226 49.9017 41.4979 49.9064 45.1127 49.9064C48.0791 49.9064 49.0039 49.8954 49.0394 49.8599C49.0649 49.8343 49.0858 49.782 49.0858 49.7435C49.0858 49.6828 33.4817 30.0975 33.1677 29.7642C33.042 29.6307 33.0026 29.6173 32.9095 29.6762ZM57.1673 29.7449C57.0645 29.856 46.7582 42.7683 46.7103 42.846C46.6952 42.8705 46.7017 42.9256 46.7247 42.9687C46.7663 43.0465 46.7929 43.047 50.6725 43.047C54.2908 43.047 54.5888 43.0421 54.7185 42.9802C54.8246 42.9295 55.1667 42.5274 56.1344 41.3158C56.8786 40.3841 57.4256 39.6651 57.447 39.5906C57.4691 39.5134 57.4836 37.5427 57.4836 34.6115C57.4836 30.2528 57.4774 29.7539 57.4228 29.6992C57.3366 29.6129 57.28 29.623 57.1673 29.7449ZM40.022 55.334C39.2886 55.4355 38.5615 55.8002 38.0171 56.3395C37.3125 57.0376 36.9645 57.8719 36.9668 58.8578C36.9689 59.7947 37.2781 60.5926 37.9038 61.2762C38.3483 61.7617 38.9982 62.1443 39.6625 62.3116C40.1654 62.4382 40.8722 62.4321 41.3874 62.2966C41.9968 62.1364 42.4828 61.8627 42.9466 61.4186C43.421 60.9643 43.7719 60.3704 43.944 59.7304C44.0632 59.287 44.0632 58.43 43.944 57.9865C43.7719 57.3466 43.421 56.7526 42.9466 56.2984C42.6162 55.9819 42.3963 55.8308 41.9871 55.6387C41.4151 55.3703 40.6344 55.2493 40.022 55.334ZM21.1836 58.8575L21.1836 62.23L21.8098 62.23L22.436 62.23L22.5827 62.0653C22.934 61.6709 27.7601 55.58 27.7491 55.545C27.7416 55.5215 27.4506 55.5021 27.0089 55.4957C26.4332 55.4874 26.2639 55.4966 26.1994 55.5398C26.1545 55.5699 25.2993 56.6246 24.2989 57.8837C23.2985 59.1428 22.4671 60.1737 22.4513 60.1745C22.4355 60.1754 22.4181 59.1254 22.4126 57.8412L22.4026 55.5063L21.7931 55.4956L21.1836 55.4849L21.1836 58.8575ZM29.8991 55.5509C29.809 55.5958 29.041 56.5309 27.2656 58.7575C24.4288 62.3151 24.542 62.17 24.5764 62.2044C24.6253 62.2534 26.0746 62.2311 26.1394 62.1803C26.1726 62.1544 26.5965 61.6361 27.0814 61.0287C27.5663 60.4212 27.9754 59.9195 27.9905 59.9139C28.0055 59.9082 28.4113 60.3965 28.8922 60.999C29.3731 61.6014 29.8008 62.1254 29.8426 62.1632C29.9099 62.2241 29.9895 62.2308 30.5337 62.2213L31.1487 62.2106L31.1487 58.8585L31.1487 55.5063L30.5875 55.4969C30.1323 55.4893 30.0024 55.4995 29.8991 55.5509ZM32.7012 55.5472C32.6702 55.628 32.6699 62.088 32.7008 62.1687C32.7217 62.2233 32.9033 62.23 34.3506 62.23L35.977 62.23L36.0976 62.1011C36.3805 61.7989 36.8635 61.1408 36.8426 61.0861C36.8237 61.0368 36.6185 61.0287 35.3877 61.0287L33.9549 61.0287L33.945 58.2675L33.935 55.5063L33.33 55.4956C32.8038 55.4864 32.7219 55.4931 32.7012 55.5472ZM45.2008 55.5479C45.165 55.6414 45.1737 62.1258 45.2097 62.1826C45.2335 62.2201 45.3864 62.2295 45.838 62.2214L46.4349 62.2106L46.4449 59.4495L46.4548 56.6883L47.9061 56.6883L49.3574 56.6883L48.3703 57.9234C47.8273 58.6027 47.383 59.1892 47.383 59.2266C47.383 59.2878 49.3515 61.797 49.6404 62.1041L49.7589 62.23L50.5036 62.23C50.9731 62.23 51.2575 62.2153 51.2731 62.1901C51.2866 62.1681 50.7861 61.5098 50.1609 60.7271C49.5357 59.9445 49.0121 59.2843 48.9973 59.26C48.9818 59.2345 49.3133 58.7868 49.7835 58.1983C50.2306 57.6387 50.6055 57.144 50.6164 57.0992C50.6274 57.0544 50.6315 56.6776 50.6254 56.262L50.6144 55.5063L47.9194 55.4963C45.4869 55.4873 45.2221 55.4924 45.2008 55.5479ZM52.3544 55.5354C52.3442 55.562 52.3404 57.0748 52.3459 58.8972L52.3559 62.2106L52.9709 62.2213C53.5151 62.2308 53.5947 62.2241 53.662 62.1632C53.7038 62.1254 54.1315 61.6014 54.6124 60.999C55.0933 60.3965 55.4991 59.9082 55.5143 59.9139C55.5295 59.9195 55.9457 60.4299 56.4392 61.048C56.9327 61.6662 57.3565 62.1847 57.381 62.2004C57.4055 62.216 57.7608 62.2291 58.1705 62.2294C58.7959 62.2299 58.9154 62.221 58.9154 62.1738C58.9154 62.1246 57.2892 60.0631 54.536 56.6222C54.072 56.0423 53.6583 55.5496 53.6168 55.5274C53.5034 55.4666 52.3779 55.4737 52.3544 55.5354ZM57.9715 55.5482C57.9585 55.5819 57.9486 56.3274 57.9493 57.2049C57.9504 58.3822 57.963 58.8223 57.9977 58.8844C58.1218 59.1064 59.0966 60.2889 59.1568 60.2905C59.2193 60.2922 59.2248 60.1937 59.2342 58.9092L59.2444 57.526L61.0693 59.8106C62.0729 61.0671 62.9281 62.1259 62.9697 62.1636C63.0364 62.224 63.1172 62.2308 63.6603 62.2213L64.2753 62.2106L64.2753 58.8585L64.2753 55.5063L63.6658 55.4956C63.3306 55.4897 63.0523 55.4897 63.0474 55.4956C63.0425 55.5015 63.0294 56.5582 63.0184 57.8439L62.9982 60.1816L61.1794 57.903C60.179 56.6498 59.33 55.5935 59.2928 55.5557C59.2336 55.4956 59.1478 55.4869 58.61 55.4869C58.0848 55.4869 57.9915 55.4959 57.9715 55.5482ZM65.2106 55.5128C65.1964 55.5269 65.1847 55.7867 65.1847 56.0899C65.1847 56.5569 65.1941 56.6448 65.246 56.6647C65.2796 56.6777 65.7062 56.6883 66.1938 56.6883L67.0805 56.6883L67.0904 59.4495L67.1004 62.2106L67.6973 62.2214C68.1489 62.2295 68.3018 62.2201 68.3255 62.1826C68.3428 62.1554 68.3572 60.9081 68.3575 59.4107L68.3581 56.6883L69.4816 56.6883C70.425 56.6883 70.6085 56.6793 70.6265 56.6323C70.6461 56.5811 69.9472 55.6577 69.7962 55.5354C69.7499 55.4978 69.2288 55.4869 67.4864 55.4869C66.2489 55.4869 65.2247 55.4985 65.2106 55.5128ZM41.2831 56.6632C41.6049 56.7875 41.979 57.048 42.195 57.2981C42.4134 57.551 42.6425 58.0207 42.7219 58.3782C42.931 59.3192 42.4645 60.4049 41.6441 60.8863C41.0115 61.2576 40.1564 61.2894 39.5167 60.9655C38.9049 60.6557 38.4514 60.079 38.2866 59.401C38.1697 58.9202 38.2537 58.2218 38.4825 57.7728C38.6902 57.3651 39.0956 56.965 39.518 56.7509C39.8663 56.5743 40.0829 56.5325 40.572 56.5471C40.9399 56.5582 41.0631 56.5783 41.2831 56.6632ZM29.8909 58.8633L29.8909 60.3407L29.3089 59.6122C28.9888 59.2116 28.7355 58.8612 28.746 58.8337C28.7636 58.788 29.8591 57.3927 29.8813 57.3879C29.8866 57.3868 29.8909 58.0507 29.8909 58.8633ZM54.7746 58.8585C54.7746 58.8745 54.5134 59.2146 54.1941 59.6142L53.6136 60.3407L53.6136 58.8585L53.6136 57.3762L54.1941 58.1028C54.5134 58.5024 54.7746 58.8424 54.7746 58.8585Z" fill="url(#paint0_linear_199_1797)"/>
<defs>
<linearGradient id="paint0_linear_199_1797" x1="45.9053" y1="29.6426" x2="45.9053" y2="62.4026" gradientUnits="userSpaceOnUse">
<stop stop-color="#09225A"/>
<stop offset="1" stop-color="#D8194B"/>
</linearGradient>
</defs>
</svg>
