<svg width="88" height="87" viewBox="0 0 88 87" fill="none" xmlns="http://www.w3.org/2000/svg">
<circle cx="44.2015" cy="43.323" r="43.1991" transform="rotate(0.136645 44.2015 43.323)" fill="white"/>
<path fill-rule="evenodd" clip-rule="evenodd" d="M29.1032 24.699L33.0261 26.9221L32.9907 41.7451L32.9554 56.5679L33.393 56.4905C34.8771 56.2282 39.2158 55.6432 39.2706 55.6981C39.3069 55.7344 39.0282 55.936 38.6514 56.1464C37.7328 56.6588 24.0456 64.5927 23.5903 64.8766L23.2318 65.1L23.2839 43.2732L23.3359 21.4463L24.2581 21.9611C24.7652 22.2441 26.9455 23.4761 29.1032 24.699ZM65.1187 43.3678C65.0903 55.2844 65.0135 65.0341 64.9478 65.0338C64.8821 65.0336 63.3274 64.1443 61.4927 63.0577C59.6581 61.9709 56.108 59.881 53.6038 58.4131C51.0996 56.9453 49.1698 55.7271 49.3154 55.7059C49.461 55.6847 50.886 55.8705 52.4821 56.1186L55.3841 56.5698L55.4194 41.7698L55.4546 26.9698L60.1137 24.3456C62.676 22.9024 64.8623 21.7169 64.9715 21.7113C65.1297 21.7033 65.1598 26.1343 65.1187 43.3678ZM48.8516 45.0992L48.8783 51.3769L46.6245 57.5019C44.5881 63.0357 44.0914 64.307 44.0772 64.022C44.0748 63.9712 43.0415 61.0984 41.7811 57.6384L39.4896 51.3472L39.5044 45.1392C39.522 37.7653 38.8172 38.7054 44.2809 38.7689L48.825 38.8216L48.8516 45.0992Z" fill="url(#paint0_linear_199_1897)"/>
<defs>
<linearGradient id="paint0_linear_199_1897" x1="44.2534" y1="21.4962" x2="44.1492" y2="65.1499" gradientUnits="userSpaceOnUse">
<stop stop-color="#09225A"/>
<stop offset="1" stop-color="#D8194B"/>
</linearGradient>
</defs>
</svg>
