<svg width="93" height="94" viewBox="0 0 93 94" fill="none" xmlns="http://www.w3.org/2000/svg">
<circle cx="46.3612" cy="46.936" r="43.1991" transform="rotate(-4 46.3612 46.936)" fill="white"/>
<path fill-rule="evenodd" clip-rule="evenodd" d="M47.896 24.2362C54.4476 24.6805 60.4375 27.8467 64.3489 32.9328C65.9973 35.0764 67.4297 37.8551 68.0734 40.1581C68.1128 40.2994 68.1835 40.5471 68.2303 40.7085C72.6221 55.844 59.3547 71.1728 43.7585 68.9825C43.4465 68.9387 43.1061 68.8924 43.0022 68.8796C39.1491 68.4051 34.6351 66.2256 31.3729 63.2646C30.2297 62.2269 28.056 59.7542 28.0361 59.4687C28.0343 59.4438 27.9395 59.2963 27.8253 59.1408C27.6082 58.845 26.9272 57.7125 26.5946 57.0942C26.0828 56.1425 25.2743 54.1605 25.0359 53.2732C25.0088 53.1722 24.9155 52.8419 24.8287 52.5391C24.2119 50.3901 23.9069 47.188 24.1096 44.9915C24.2895 43.0408 24.7142 40.896 25.1692 39.6399C25.238 39.4499 25.3368 39.1735 25.3887 39.0257C25.5683 38.5143 26.1874 37.0602 26.3135 36.8536C26.3831 36.7394 26.4387 36.6249 26.4369 36.5993C26.4351 36.5736 26.6551 36.1592 26.9258 35.6784C31.1293 28.2127 39.4649 23.6644 47.896 24.2362ZM39.3954 30.6497C40.6368 30.0768 42.4003 29.5557 43.9064 29.3166C45.3895 29.0812 48.1095 29.1186 49.6051 29.3951C50.723 29.6017 52.1952 30.0115 52.2027 30.1182C52.2048 30.1485 52.149 30.5766 52.0786 31.0695C52.0082 31.5625 51.929 32.1449 51.9028 32.3636L51.855 32.7615L52.39 33.3401C52.8959 33.8873 53.8341 35.0261 54.0364 35.3382C54.0873 35.417 54.2964 35.7224 54.501 36.0169C54.7056 36.3114 55.0551 36.8764 55.2776 37.2726C55.5002 37.6687 55.7183 38.0488 55.7622 38.1172C56.0137 38.5089 55.4851 38.8939 55.1727 38.5467C53.6044 36.8044 51.2118 35.1066 48.9543 34.134C46.2478 32.9678 43.6819 32.5487 40.7815 32.7991L39.4065 32.9178L39.0278 32.0086C39.0054 31.955 38.9841 31.9042 38.964 31.8563C38.773 31.4006 38.6847 31.1901 38.7477 31.0454C38.8019 30.9212 38.9676 30.8454 39.2756 30.7046C39.2832 30.7011 39.291 30.6976 39.2988 30.694C39.3065 30.6905 39.3143 30.6869 39.3222 30.6833C39.3458 30.6725 39.3702 30.6613 39.3954 30.6497ZM42.5178 35.1571C42.5168 35.1497 42.5907 35.1276 42.682 35.1082C42.9636 35.0479 44.9873 35.0233 45.545 35.0734C49.2471 35.4058 52.5909 36.9517 54.7727 39.3396L55.3054 39.9227L55.6358 39.7022C55.8176 39.581 56.0056 39.4474 56.0536 39.4053C56.219 39.2605 56.3545 39.3952 56.5429 39.8918C58.2079 44.2791 58.02 48.7132 56.0193 52.2506L55.657 52.8911L56.1134 53.2536C56.3805 53.4657 56.5429 53.644 56.5048 53.6834C56.469 53.7204 56.1749 53.9617 55.8511 54.2194C52.3202 57.0306 47.9214 58.2066 44.0514 57.3739C43.7069 57.2997 43.42 57.2453 43.414 57.2527C43.408 57.2602 43.3144 57.5024 43.2061 57.791C43.1086 58.0506 43.0686 58.2023 42.9802 58.2397C42.858 58.2913 42.6432 58.1244 42.0561 57.7219C38.2928 55.1424 35.767 51.1134 35.4975 47.2602L35.4761 46.9544L34.9309 46.9236C34.6814 46.9095 34.5216 46.9051 34.446 46.8232C34.3107 46.6766 34.4444 46.2821 34.8144 45.1412C36.0552 41.3156 39.2172 37.675 42.3632 36.4497C42.8782 36.2491 42.8848 36.2291 42.6583 35.5724C42.582 35.3513 42.5188 35.1644 42.5178 35.1571ZM35.7386 36.9635C37.6268 36.1058 39.3813 35.5549 41.1021 35.2794C41.2448 35.2566 41.4038 35.2296 41.4556 35.2194C41.5548 35.1999 41.7156 35.4822 41.7311 35.7031C41.7375 35.7957 41.5887 35.9046 41.2144 36.0809C36.9611 38.0842 33.4288 41.9822 32.0129 46.2354C31.7429 47.0464 31.7278 47.106 31.4921 48.2929L31.3111 49.2039L30.2796 49.276L29.2481 49.3481L29.1601 49.0923C28.9232 48.4035 28.963 45.2445 29.2281 43.6978C29.6264 41.3738 30.7192 38.6999 32.07 36.7433C32.4818 36.1468 32.5248 36.1297 33.0131 36.3701C33.2051 36.4647 33.7225 36.716 34.163 36.9287L34.9638 37.3155L35.7386 36.9635ZM57.4991 35.5315C57.5804 35.469 57.9261 35.1805 58.2675 34.8903C58.2761 34.883 58.2847 34.8757 58.2931 34.8685C58.7234 34.5027 58.8868 34.3637 59.02 34.3883C59.1017 34.4033 59.172 34.4797 59.2853 34.6029C59.2889 34.6068 59.2926 34.6108 59.2963 34.6148C62.0764 37.6338 63.5923 40.9622 63.9964 44.9346C64.0734 45.6909 64.116 46.4445 64.0912 46.6094L64.0462 46.9092L63.3469 47.046C62.9622 47.1213 62.3708 47.2265 62.0326 47.2799L61.4176 47.3769L61.1076 47.9332C60.1996 49.563 58.278 52.1206 57.4351 52.821L57.2336 52.9884L57.0064 52.7882L56.7792 52.5881L57.1353 51.9168C59.8074 46.8805 59.9791 40.8477 57.5852 36.108L57.3514 35.6452L57.4991 35.5315ZM33.9268 53.5028C33.7428 51.6182 33.7936 49.9335 34.0925 48.0133C34.1163 47.86 34.158 47.8389 34.4356 47.8396L34.7515 47.8404L34.8597 48.5814C35.6858 54.2405 39.2386 59.4495 43.7535 61.6209C43.7948 61.6408 43.833 61.6586 43.8682 61.6749C43.8686 61.6752 43.8691 61.6754 43.8696 61.6756C43.8701 61.6758 43.8706 61.6761 43.8711 61.6763L43.8713 61.6764C44.0281 61.7494 44.1246 61.7943 44.1718 61.87C44.2473 61.9908 44.1972 62.19 44.067 62.7075C44.0648 62.7161 44.0626 62.7247 44.0604 62.7335C44.0513 62.7696 44.0419 62.8073 44.032 62.8465C44.0236 62.8801 44.015 62.9148 44.0061 62.9507C43.9949 62.9958 43.9842 63.0392 43.9741 63.0807C43.9635 63.1242 43.9535 63.1658 43.9439 63.2054C43.9438 63.2057 43.9437 63.2059 43.9437 63.2062C43.8352 63.6544 43.7852 63.8613 43.6584 63.9333C43.5497 63.9951 43.3847 63.9578 43.0781 63.8886C43.0161 63.8746 42.9484 63.8593 42.8741 63.8432C38.7691 62.9555 35.1931 60.6759 32.5238 57.2449L32.1676 56.787L32.7197 56.1951C33.0233 55.8696 33.4479 55.4251 33.6631 55.2072L34.0546 54.8113L33.9268 53.5028ZM44.8602 58.3536C50.6619 59.2537 56.4823 57.5404 59.9347 53.9164C60.1074 53.7351 60.2906 53.5825 60.3417 53.5772C60.4293 53.5681 62.157 54.6298 62.1616 54.6954C62.1673 54.7773 61.4183 56.0115 60.9605 56.6748C58.9215 59.6284 55.9767 61.9056 52.5688 63.1637C51.832 63.4357 51.6121 63.4522 51.597 63.2363C51.5925 63.1727 51.4195 62.8438 50.8086 61.7377C50.6259 61.4068 50.4742 61.107 50.4718 61.0717C50.4693 61.0364 50.3221 60.9803 50.1447 60.9471C47.9979 60.5454 45.876 59.8583 44.3195 59.0609C43.856 58.8234 43.802 58.7357 43.9393 58.4442C43.9842 58.3489 44.0245 58.2609 44.0288 58.2484C44.0332 58.236 44.4073 58.2833 44.8602 58.3536Z" fill="url(#paint0_linear_19716_34423)"/>
<defs>
<linearGradient id="paint0_linear_19716_34423" x1="45.0011" y1="24.2384" x2="48.1414" y2="69.1468" gradientUnits="userSpaceOnUse">
<stop stop-color="#09225A"/>
<stop offset="1" stop-color="#D8194B"/>
</linearGradient>
</defs>
</svg>
