<svg width="88" height="87" viewBox="0 0 88 87" fill="none" xmlns="http://www.w3.org/2000/svg">
<circle cx="44.264" cy="43.4148" r="43.1991" transform="rotate(0.136645 44.264 43.4148)" fill="white"/>
<path fill-rule="evenodd" clip-rule="evenodd" d="M31.3367 22.8009C29.6512 24.2285 28.2818 25.4063 28.2935 25.4182C28.3106 25.4354 32.8489 25.1663 32.8742 25.1465C33.153 24.9285 34.8229 20.2015 34.6205 20.2033L34.4013 20.2053L31.3367 22.8009ZM35.3171 23.4175C34.6083 25.1841 34.0131 26.6464 33.9944 26.6671C33.9757 26.6877 32.3432 26.8053 30.3667 26.9284C28.3902 27.0514 26.7263 27.1615 26.6692 27.1729L26.5653 27.1938L26.5602 29.3217L26.5552 31.4495L26.7743 31.4321C26.8949 31.4224 29.2243 31.2737 31.9509 31.1017C34.6775 30.9296 36.9147 30.7824 36.9226 30.7745C36.9419 30.7552 41.1595 20.2681 41.1596 20.2392C41.1596 20.2267 40.135 20.214 38.8826 20.211L36.6056 20.2055L35.3171 23.4175ZM42.5072 21.2526C42.2787 21.8202 41.1871 24.5356 40.0814 27.2868C38.4882 31.2507 38.051 32.2966 37.9746 32.3262C37.9217 32.3466 35.3765 32.5176 32.3187 32.706C29.2608 32.8944 26.7122 33.0579 26.6551 33.0692L26.5512 33.0899L26.549 35.1666L26.5467 37.2433L30.3637 40.4094C32.463 42.1507 34.1814 43.5986 34.1823 43.6268C34.1839 43.6764 31.2694 55.5359 31.228 55.6483C31.1981 55.7296 33.2696 57.4898 33.3561 57.4567C33.3943 57.442 35.8032 55.9423 38.7092 54.1241C41.6152 52.3059 44.0033 50.8182 44.016 50.8182C44.0288 50.8183 46.4176 52.3222 49.3244 54.1603C52.2312 55.9984 54.6408 57.5024 54.6792 57.5024C54.7175 57.5025 55.2086 57.1126 55.7704 56.636L56.7921 55.7694L56.6636 55.2238C56.5929 54.9238 55.9388 52.2027 55.2098 49.177C54.3688 45.686 53.9 43.6569 53.927 43.6244C53.9503 43.5962 55.6756 42.1677 57.7608 40.45L61.5522 37.3267L61.5587 35.2492C61.5623 34.1065 61.56 33.1696 61.5537 33.167C61.5473 33.1645 58.9738 32.9851 55.8346 32.7684C52.6954 32.5517 50.1074 32.3543 50.0834 32.3298C50.0594 32.3053 48.9737 29.5981 47.6708 26.3138C46.3679 23.0295 45.2914 20.3162 45.2786 20.2843C45.261 20.2399 44.979 20.2255 44.089 20.2234L42.9227 20.2206L42.5072 21.2526ZM47.0183 20.2506C47.0183 20.2775 51.1874 30.7908 51.2053 30.8089C51.213 30.8166 53.4494 30.9744 56.1751 31.1595C58.9008 31.3445 61.2295 31.5043 61.35 31.5145L61.5691 31.5331L61.5742 29.4052L61.5793 27.2773L61.4755 27.2559C61.4185 27.2442 59.7551 27.1262 57.7792 26.9938C55.8033 26.8613 54.1717 26.7359 54.1534 26.7152C54.1351 26.6944 53.5471 25.2292 52.8466 23.4593L51.573 20.2412L49.2957 20.2358C48.0432 20.2328 47.0183 20.2395 47.0183 20.2506ZM53.3496 20.3267C53.3689 20.3982 55.2668 25.1859 55.2815 25.2C55.3015 25.2193 59.8422 25.5108 59.8591 25.4938C59.8707 25.4822 58.5023 24.2968 56.818 22.8596L53.7559 20.2464L53.5418 20.2459C53.3601 20.2455 53.331 20.2578 53.3496 20.3267ZM45.6069 32.6229C46.4207 34.6803 47.1023 36.3819 47.1216 36.4041C47.1408 36.4262 48.986 36.5694 51.2221 36.7222C53.4581 36.875 55.2976 37.0102 55.3098 37.0225C55.322 37.0349 53.9843 38.1554 52.3372 39.5126C50.69 40.8698 49.2781 42.0353 49.1996 42.1027L49.057 42.2252L50.008 46.1701C50.5311 48.3399 50.9542 50.142 50.9482 50.1749C50.9418 50.2098 49.5002 49.3257 47.4825 48.0496L44.0279 45.8645L43.7506 46.0388C40.0898 48.3402 37.0956 50.1918 37.0854 50.1605C37.0781 50.1385 37.5037 48.3684 38.031 46.227C38.5584 44.0855 38.994 42.3004 38.999 42.2599C39.0048 42.2138 37.8488 41.2215 35.8872 39.5887C34.1706 38.1599 32.7761 36.9809 32.7883 36.9687C32.8005 36.9565 34.6406 36.8302 36.8773 36.688C39.1141 36.5459 40.9602 36.4115 40.9798 36.3894C40.9994 36.3673 41.7007 34.6413 42.5382 32.5538C43.4412 30.3032 44.0744 28.7836 44.0941 28.8202C44.1123 28.8542 44.7931 30.5654 45.6069 32.6229ZM26.5219 45.516L26.5076 51.6818L28.1422 53.0785C29.0413 53.8467 29.7928 54.4806 29.8122 54.4873C29.8448 54.4985 32.4036 44.1984 32.3737 44.176C32.3665 44.1706 31.076 43.0987 29.506 41.794C27.936 40.4893 26.6256 39.4058 26.5939 39.386C26.5479 39.3574 26.5334 40.5952 26.5219 45.516ZM58.6082 41.8439L55.6921 44.2488L56.0194 45.6099C56.1994 46.3585 56.7568 48.6797 57.2581 50.768C57.7594 52.8563 58.1849 54.56 58.2036 54.554C58.2223 54.548 58.9762 53.918 59.8789 53.1542L61.5202 51.7653L61.5352 45.6022C61.5435 42.2125 61.5444 39.4391 61.5372 39.4391C61.5301 39.4391 60.212 40.5213 58.6082 41.8439ZM39.3041 55.6524C36.7405 57.2597 34.6442 58.5918 34.6458 58.6125C34.6488 58.6525 37.8831 61.4353 37.9266 61.4354C37.9407 61.4354 39.3024 60.5896 40.9528 59.5559C44.5178 57.323 43.4831 57.3205 47.0383 59.5709C48.6843 60.6128 50.0469 61.4598 50.0664 61.4532C50.227 61.3988 53.374 58.6562 53.3262 58.6123C53.237 58.5302 44.0292 52.7213 43.9956 52.7259C43.979 52.7281 41.8678 54.0451 39.3041 55.6524ZM41.6415 61.0331C40.3469 61.8432 39.2737 62.5217 39.2564 62.5409C39.2268 62.5739 43.8892 66.5943 43.97 66.6055C44.0297 66.6137 48.723 62.6184 48.7075 62.5726C48.6998 62.5499 47.7608 61.9419 46.6207 61.2214C45.4807 60.5008 44.4236 59.8323 44.2716 59.7358L43.9952 59.5602L41.6415 61.0331Z" fill="url(#paint0_linear_199_1875)"/>
<defs>
<linearGradient id="paint0_linear_199_1875" x1="44.089" y1="20.2234" x2="43.9784" y2="66.6055" gradientUnits="userSpaceOnUse">
<stop stop-color="#09225A"/>
<stop offset="1" stop-color="#D8194B"/>
</linearGradient>
</defs>
</svg>
