<?xml version="1.0" encoding="UTF-8"?>
<!DOCTYPE svg PUBLIC "-//W3C//DTD SVG 1.1//EN" "http://www.w3.org/Graphics/SVG/1.1/DTD/svg11.dtd">
<svg xmlns="http://www.w3.org/2000/svg" version="1.1" width="512px" height="512px" style="shape-rendering:geometricPrecision; text-rendering:geometricPrecision; image-rendering:optimizeQuality; fill-rule:evenodd; clip-rule:evenodd" xmlns:xlink="http://www.w3.org/1999/xlink">
<g><path style="opacity:0.942" fill="#000000" d="M 156.5,-0.5 C 162.5,-0.5 168.5,-0.5 174.5,-0.5C 178.463,4.3345 178.463,9.16783 174.5,14C 169.437,14.2479 164.437,14.9145 159.5,16C 156.619,17.2506 154.786,19.4173 154,22.5C 153.019,48.5871 153.352,74.5871 155,100.5C 156.543,102.378 158.376,103.878 160.5,105C 192.167,105.167 223.833,105.333 255.5,105.5C 287.917,105.66 320.25,105.16 352.5,104C 354.378,102.457 355.878,100.624 357,98.5C 357.667,73.1667 357.667,47.8333 357,22.5C 355.604,17.7723 352.438,15.2723 347.5,15C 298.5,14.6667 249.5,14.3333 200.5,14C 196.537,9.16783 196.537,4.3345 200.5,-0.5C 251.833,-0.5 303.167,-0.5 354.5,-0.5C 364.247,2.75018 370.413,9.41684 373,19.5C 373.667,46.8333 373.667,74.1667 373,101.5C 370.167,111.667 363.667,118.167 353.5,121C 323.502,121.5 293.502,121.667 263.5,121.5C 263.5,131.833 263.5,142.167 263.5,152.5C 300.835,152.333 338.168,152.5 375.5,153C 384.793,154.958 390.96,160.458 394,169.5C 394.5,180.161 394.667,190.828 394.5,201.5C 411.503,201.333 428.503,201.5 445.5,202C 456.74,204.033 463.907,210.533 467,221.5C 467.667,244.167 467.667,266.833 467,289.5C 463.637,300.196 456.471,306.696 445.5,309C 428.503,309.5 411.503,309.667 394.5,309.5C 394.5,322.5 394.5,335.5 394.5,348.5C 409.837,348.333 425.17,348.5 440.5,349C 451.225,350.725 457.725,356.892 460,367.5C 460.5,379.829 460.667,392.162 460.5,404.5C 470.839,404.334 481.172,404.5 491.5,405C 501.583,407.587 508.25,413.753 511.5,423.5C 511.5,446.5 511.5,469.5 511.5,492.5C 508.255,501.412 502.255,507.745 493.5,511.5C 488.833,511.5 484.167,511.5 479.5,511.5C 475.3,507.982 474.467,503.649 477,498.5C 481.382,496.904 485.882,495.57 490.5,494.5C 492.527,493.307 494.027,491.64 495,489.5C 495.667,468.5 495.667,447.5 495,426.5C 493.749,423.619 491.583,421.786 488.5,421C 476.333,420.833 464.167,420.667 452,420.5C 416.145,409.419 401.645,421.919 408.5,458C 408.667,467.833 408.833,477.667 409,487.5C 410.48,492.824 413.98,495.657 419.5,496C 430.833,496.333 442.167,496.667 453.5,497C 457.715,502.28 457.382,507.114 452.5,511.5C 438.833,511.5 425.167,511.5 411.5,511.5C 401.386,507.669 395.219,500.335 393,489.5C 392.054,467.124 392.388,444.791 394,422.5C 396.744,414.755 401.911,409.255 409.5,406C 421.104,404.588 432.771,404.088 444.5,404.5C 444.667,393.162 444.5,381.828 444,370.5C 443.167,367.667 441.333,365.833 438.5,365C 421.167,364.833 403.833,364.667 386.5,364.5C 368.412,364.346 350.412,364.846 332.5,366C 331.667,366.833 330.833,367.667 330,368.5C 329.5,380.495 329.333,392.495 329.5,404.5C 339.839,404.334 350.172,404.5 360.5,405C 371,407.5 377.5,414 380,424.5C 380.667,446.833 380.667,469.167 380,491.5C 377.422,501.575 371.256,508.241 361.5,511.5C 334.5,511.5 307.5,511.5 280.5,511.5C 270.308,508.136 264.141,501.136 262,490.5C 261.042,467.45 261.375,444.45 263,421.5C 266.167,414.333 271.333,409.167 278.5,406C 290.09,404.564 301.757,404.064 313.5,404.5C 313.333,391.496 313.5,378.496 314,365.5C 317.136,356.031 323.636,350.531 333.5,349C 348.496,348.5 363.496,348.333 378.5,348.5C 378.5,335.5 378.5,322.5 378.5,309.5C 361.497,309.667 344.497,309.5 327.5,309C 315.667,306.5 308.5,299.333 306,287.5C 305.333,266.167 305.333,244.833 306,223.5C 308.5,211.667 315.667,204.5 327.5,202C 344.497,201.5 361.497,201.333 378.5,201.5C 378.666,191.828 378.5,182.161 378,172.5C 376.786,170.951 375.286,169.785 373.5,169C 294.833,168.333 216.167,168.333 137.5,169C 135.714,169.785 134.214,170.951 133,172.5C 132.5,182.161 132.334,191.828 132.5,201.5C 149.503,201.333 166.503,201.5 183.5,202C 195.333,204.5 202.5,211.667 205,223.5C 205.667,244.833 205.667,266.167 205,287.5C 202.5,299.333 195.333,306.5 183.5,309C 166.503,309.5 149.503,309.667 132.5,309.5C 132.5,322.5 132.5,335.5 132.5,348.5C 147.504,348.333 162.504,348.5 177.5,349C 187.364,350.531 193.864,356.031 197,365.5C 197.5,378.496 197.667,391.496 197.5,404.5C 209.243,404.064 220.91,404.564 232.5,406C 239.667,409.167 244.833,414.333 248,421.5C 249.625,444.45 249.958,467.45 249,490.5C 246.859,501.136 240.692,508.136 230.5,511.5C 203.5,511.5 176.5,511.5 149.5,511.5C 139.744,508.241 133.578,501.575 131,491.5C 130.333,469.167 130.333,446.833 131,424.5C 133.5,414 140,407.5 150.5,405C 160.828,404.5 171.161,404.334 181.5,404.5C 181.667,392.495 181.5,380.495 181,368.5C 180.167,367.667 179.333,366.833 178.5,366C 160.396,364.853 142.23,364.353 124,364.5C 106.833,364.667 89.6667,364.833 72.5,365C 69.6667,365.833 67.8333,367.667 67,370.5C 66.5001,381.828 66.3335,393.162 66.5,404.5C 78.2293,404.088 89.8959,404.588 101.5,406C 109.089,409.255 114.256,414.755 117,422.5C 118.612,444.791 118.946,467.124 118,489.5C 115.786,500.317 109.619,507.65 99.5,511.5C 72.1667,511.5 44.8333,511.5 17.5,511.5C 8.74454,507.745 2.74454,501.412 -0.5,492.5C -0.5,469.5 -0.5,446.5 -0.5,423.5C 2.75018,413.753 9.41684,407.587 19.5,405C 29.828,404.5 40.1613,404.334 50.5,404.5C 50.3335,392.162 50.5001,379.829 51,367.5C 53.2749,356.892 59.7749,350.725 70.5,349C 85.8297,348.5 101.163,348.333 116.5,348.5C 116.5,335.5 116.5,322.5 116.5,309.5C 105.799,310.973 101.633,306.64 104,296.5C 104.903,295.299 106.069,294.465 107.5,294C 132.167,293.667 156.833,293.333 181.5,293C 185.333,291.833 187.833,289.333 189,285.5C 189.667,265.5 189.667,245.5 189,225.5C 187.833,221.667 185.333,219.167 181.5,218C 142.44,217.018 103.44,217.351 64.5,219C 62.6217,220.543 61.1217,222.376 60,224.5C 59.3333,245.167 59.3333,265.833 60,286.5C 61.1217,288.624 62.6217,290.457 64.5,292C 69.4164,293.161 74.4164,293.827 79.5,294C 83.7532,297.42 84.5865,301.587 82,306.5C 68.8771,312.005 57.5437,309.339 48,298.5C 46.0922,295.785 44.7589,292.785 44,289.5C 43.3333,266.833 43.3333,244.167 44,221.5C 47.0928,210.533 54.2595,204.033 65.5,202C 82.4967,201.5 99.4967,201.333 116.5,201.5C 116.333,190.828 116.5,180.161 117,169.5C 120.04,160.458 126.207,154.958 135.5,153C 172.832,152.5 210.165,152.333 247.5,152.5C 247.5,142.167 247.5,131.833 247.5,121.5C 217.498,121.667 187.498,121.5 157.5,121C 147.333,118.167 140.833,111.667 138,101.5C 137.333,74.1667 137.333,46.8333 138,19.5C 140.587,9.41684 146.753,2.75018 156.5,-0.5 Z M 329.5,217.5 C 368.561,217.018 407.561,217.518 446.5,219C 448.378,220.543 449.878,222.376 451,224.5C 451.977,245.922 451.644,267.256 450,288.5C 448.363,290.81 446.196,292.31 443.5,293C 405.5,293.667 367.5,293.667 329.5,293C 325.667,291.833 323.167,289.333 322,285.5C 321.333,265.5 321.333,245.5 322,225.5C 323.353,221.65 325.853,218.983 329.5,217.5 Z M 22.5,420.5 C 47.5896,420.019 72.5896,420.519 97.5,422C 99.6166,423.731 101.117,425.898 102,428.5C 102.667,448.167 102.667,467.833 102,487.5C 100.52,492.824 97.0199,495.657 91.5,496C 69.5,496.667 47.5,496.667 25.5,496C 21.0346,495.687 17.8679,493.521 16,489.5C 15.3333,468.5 15.3333,447.5 16,426.5C 17.4936,423.686 19.6603,421.686 22.5,420.5 Z M 153.5,420.5 C 178.59,420.019 203.59,420.519 228.5,422C 230.81,423.637 232.31,425.804 233,428.5C 233.667,448.5 233.667,468.5 233,488.5C 231.604,493.228 228.438,495.728 223.5,496C 201.167,496.667 178.833,496.667 156.5,496C 152.035,495.687 148.868,493.521 147,489.5C 146.333,468.833 146.333,448.167 147,427.5C 148.018,423.985 150.185,421.652 153.5,420.5 Z M 284.5,420.5 C 308.836,420.333 333.169,420.5 357.5,421C 361,421.833 363.167,424 364,427.5C 364.977,448.922 364.644,470.256 363,491.5C 360.806,494.181 357.973,495.681 354.5,496C 332.167,496.667 309.833,496.667 287.5,496C 282.562,495.728 279.396,493.228 278,488.5C 277.333,468.5 277.333,448.5 278,428.5C 279.277,425.062 281.443,422.395 284.5,420.5 Z"/></g>
<g><path style="opacity:0.935" fill="#000000" d="M 182.5,28.5 C 186.603,27.7691 190.103,28.7691 193,31.5C 195.046,38.7255 196.712,46.0588 198,53.5C 200.632,46.9899 202.965,40.3232 205,33.5C 207.435,28.7762 211.269,27.2762 216.5,29C 217.333,29.8333 218.167,30.6667 219,31.5C 221.68,38.8777 224.347,46.211 227,53.5C 228.288,46.0588 229.954,38.7255 232,31.5C 237.033,27.2207 241.7,27.5541 246,32.5C 244.25,48.927 241.583,65.2604 238,81.5C 236.095,92.2868 230.428,94.9534 221,89.5C 218.164,81.4843 215.331,73.4843 212.5,65.5C 209.728,73.7557 206.728,81.9223 203.5,90C 198.182,93.6947 193.349,93.1947 189,88.5C 184.369,70.016 181.036,51.3493 179,32.5C 180.032,30.9733 181.199,29.64 182.5,28.5 Z"/></g>
<g><path style="opacity:0.924" fill="#000000" d="M 260.5,28.5 C 266.192,27.2601 270.026,29.2601 272,34.5C 272.667,51.5 272.667,68.5 272,85.5C 268.445,93.4111 263.445,94.4111 257,88.5C 256.333,69.8333 256.333,51.1667 257,32.5C 257.69,30.6498 258.856,29.3164 260.5,28.5 Z"/></g>
<g><path style="opacity:0.929" fill="#000000" d="M 287.5,28.5 C 290.93,28.1065 294.096,28.7732 297,30.5C 303.333,39.8333 309.667,49.1667 316,58.5C 316.053,49.0664 316.72,39.7331 318,30.5C 322.665,27.5442 326.998,27.8775 331,31.5C 332.64,49.7428 332.973,68.0761 332,86.5C 331.215,88.286 330.049,89.786 328.5,91C 325.5,91.6667 322.5,91.6667 319.5,91C 312.544,81.5882 305.711,72.0882 299,62.5C 298.667,71.1667 298.333,79.8333 298,88.5C 291.994,94.3301 286.994,93.6635 283,86.5C 282.333,69.1667 282.333,51.8333 283,34.5C 283.599,31.7458 285.099,29.7458 287.5,28.5 Z"/></g>
</svg>
