<?xml version="1.0" encoding="UTF-8"?>
<!DOCTYPE svg PUBLIC "-//W3C//DTD SVG 1.1//EN" "http://www.w3.org/Graphics/SVG/1.1/DTD/svg11.dtd">
<svg xmlns="http://www.w3.org/2000/svg" version="1.1" width="512px" height="512px" style="shape-rendering:geometricPrecision; text-rendering:geometricPrecision; image-rendering:optimizeQuality; fill-rule:evenodd; clip-rule:evenodd" xmlns:xlink="http://www.w3.org/1999/xlink">
<g><path style="opacity:0.998" fill="#fed525" d="M 367.5,47.5 C 366.689,51.8347 366.022,56.3347 365.5,61C 365.528,62.0698 365.861,62.9032 366.5,63.5C 362.895,95.8155 353.729,126.482 339,155.5C 333.368,164.948 327.202,173.948 320.5,182.5C 319.833,182.5 319.5,182.833 319.5,183.5C 312.825,188.836 306.158,194.169 299.5,199.5C 294.312,203.263 288.645,206.263 282.5,208.5C 264.505,213.738 246.505,213.738 228.5,208.5C 222.355,206.263 216.688,203.263 211.5,199.5C 204.842,194.169 198.175,188.836 191.5,183.5C 172.259,160.016 159.092,133.35 152,103.5C 148.954,90.2212 146.454,76.8879 144.5,63.5C 145.097,63.2648 145.43,62.7648 145.5,62C 144.907,57.0196 144.24,52.1863 143.5,47.5C 140.77,36.8817 144.104,29.0483 153.5,24C 221.5,23.3333 289.5,23.3333 357.5,24C 366.896,29.0483 370.23,36.8817 367.5,47.5 Z"/></g>
<g><path style="opacity:0.962" fill="#dfb100" d="M 143.5,47.5 C 144.24,52.1863 144.907,57.0196 145.5,62C 145.43,62.7648 145.097,63.2648 144.5,63.5C 133.495,63.3335 122.495,63.5002 111.5,64C 105.514,65.4543 103.181,69.2876 104.5,75.5C 105.786,103.677 114.286,129.343 130,152.5C 146.023,171.429 166.523,181.762 191.5,183.5C 198.175,188.836 204.842,194.169 211.5,199.5C 153.378,203.863 114.878,178.529 96,123.5C 90.9447,106.334 87.778,88.8339 86.5,71C 87.6662,59.5055 93.6662,51.8389 104.5,48C 117.496,47.5001 130.496,47.3334 143.5,47.5 Z"/></g>
<g><path style="opacity:0.962" fill="#dfb100" d="M 367.5,47.5 C 380.504,47.3334 393.504,47.5001 406.5,48C 418.281,52.3893 423.948,60.8893 423.5,73.5C 422.381,107.023 412.215,137.357 393,164.5C 367.893,192.039 336.726,203.706 299.5,199.5C 306.158,194.169 312.825,188.836 319.5,183.5C 320.167,183.5 320.5,183.167 320.5,182.5C 357.847,179.655 383.014,160.655 396,125.5C 403.076,107.125 406.409,88.1251 406,68.5C 404.661,65.9057 402.494,64.4057 399.5,64C 388.505,63.5002 377.505,63.3335 366.5,63.5C 365.861,62.9032 365.528,62.0698 365.5,61C 366.022,56.3347 366.689,51.8347 367.5,47.5 Z"/></g>
<g><path style="opacity:1" fill="#fffefb" d="M 312.5,119.5 C 320.614,118.121 324.447,121.454 324,129.5C 319.36,140.117 313.693,150.117 307,159.5C 302.333,164.833 297.667,164.833 293,159.5C 291.699,157.635 291.365,155.635 292,153.5C 299.457,142.543 306.29,131.21 312.5,119.5 Z"/></g>
<g><path style="opacity:1" fill="#fffdf7" d="M 272.5,167.5 C 283.167,168.003 285.833,172.836 280.5,182C 271.42,185.215 267.253,182.048 268,172.5C 269.025,170.313 270.525,168.646 272.5,167.5 Z"/></g>
<g><path style="opacity:0.987" fill="#dfb100" d="M 228.5,208.5 C 246.505,213.738 264.505,213.738 282.5,208.5C 283.17,227.521 288.337,245.187 298,261.5C 300.696,265.361 303.863,268.694 307.5,271.5C 272.833,271.5 238.167,271.5 203.5,271.5C 214.773,260.971 221.939,247.971 225,232.5C 226.822,224.589 227.989,216.589 228.5,208.5 Z"/></g>
<g><path style="opacity:0.996" fill="#ffd524" d="M 203.5,271.5 C 238.167,271.5 272.833,271.5 307.5,271.5C 324.158,271.168 330.491,279.168 326.5,295.5C 279.167,295.5 231.833,295.5 184.5,295.5C 180.509,279.168 186.842,271.168 203.5,271.5 Z"/></g>
<g><path style="opacity:0.997" fill="#1f2b54" d="M 184.5,295.5 C 231.833,295.5 279.167,295.5 326.5,295.5C 343.503,295.333 360.503,295.5 377.5,296C 418.181,305.014 443.348,329.847 453,370.5C 459.988,410.546 447.821,443.38 416.5,469C 381.536,491.735 345.536,493.402 308.5,474C 272.627,446.422 236.96,446.755 201.5,475C 163.494,493.915 127.16,491.248 92.5,467C 59.989,437.785 49.489,401.951 61,359.5C 72.9678,324.86 96.8011,303.693 132.5,296C 149.83,295.5 167.163,295.333 184.5,295.5 Z"/></g>
<g><path style="opacity:1" fill="#deeffc" d="M 354.5,335.5 C 370.678,335.168 377.178,342.834 374,358.5C 368.039,367.283 360.206,369.449 350.5,365C 340.083,353.501 341.416,343.667 354.5,335.5 Z"/></g>
<g><path style="opacity:1" fill="#e1f2fe" d="M 139.5,343.5 C 147.507,343.334 155.507,343.5 163.5,344C 164.667,345.167 165.833,346.333 167,347.5C 167.5,356.827 167.666,366.161 167.5,375.5C 176.839,375.334 186.173,375.5 195.5,376C 196.667,377.167 197.833,378.333 199,379.5C 199.667,387.5 199.667,395.5 199,403.5C 197.833,404.667 196.667,405.833 195.5,407C 186.173,407.5 176.839,407.666 167.5,407.5C 167.666,416.839 167.5,426.173 167,435.5C 165.833,436.667 164.667,437.833 163.5,439C 155.5,439.667 147.5,439.667 139.5,439C 138.333,437.833 137.167,436.667 136,435.5C 135.5,426.173 135.334,416.839 135.5,407.5C 126.161,407.666 116.827,407.5 107.5,407C 106.333,405.833 105.167,404.667 104,403.5C 103.333,395.5 103.333,387.5 104,379.5C 105.167,378.333 106.333,377.167 107.5,376C 116.827,375.5 126.161,375.334 135.5,375.5C 135.334,366.161 135.5,356.827 136,347.5C 137.376,346.295 138.542,344.962 139.5,343.5 Z"/></g>
<g><path style="opacity:1" fill="#deeffc" d="M 314.5,375.5 C 330.678,375.168 337.178,382.834 334,398.5C 328.039,407.283 320.206,409.449 310.5,405C 300.083,393.501 301.416,383.667 314.5,375.5 Z"/></g>
<g><path style="opacity:1" fill="#deeffc" d="M 394.5,375.5 C 410.678,375.168 417.178,382.834 414,398.5C 408.039,407.283 400.206,409.449 390.5,405C 380.083,393.501 381.416,383.667 394.5,375.5 Z"/></g>
<g><path style="opacity:1" fill="#deeffc" d="M 354.5,415.5 C 370.678,415.168 377.178,422.834 374,438.5C 368.039,447.283 360.206,449.449 350.5,445C 340.083,433.501 341.416,423.667 354.5,415.5 Z"/></g>
</svg>
